<svg xmlns="http://www.w3.org/2000/svg" viewBox="0 0 720 480" id="empty-email"><rect width="720" height="480" fill="none" data-name="White Space"></rect><g data-name="Layer 5"><path fill="#fff" stroke="#232323" stroke-linecap="round" stroke-linejoin="round" stroke-width="2" d="m506.79,139.68h0c21.36,0,38.69,17.34,38.69,38.69v86.17h-77.39v-86.17c0-21.36,17.34-38.69,38.69-38.69Z"></path><path fill="#fff" stroke="#232323" stroke-linecap="round" stroke-linejoin="round" stroke-width="2" d="M620.74 139.68h-113.95c21.37 0 38.69 17.32 38.69 38.69v86.17h117.27v-77.43c0-36.92-15.9-47.43-42.01-47.43zM503.31 139.84c1.15-.1 2.3-.16 3.48-.16h-3.48v.16z"></path><ellipse cx="584.27" cy="163.01" fill="#232323" rx="6.42" ry="7.4"></ellipse><polygon fill="#cad6f4" points="641.02 124.95 588.17 124.95 588.17 95.79 641.02 95.79 624.2 110.37 641.02 124.95"></polygon><rect width="8.54" height="72.23" x="580" y="90.1" fill="#232323" rx="4.16" ry="4.16"></rect><rect width="20.36" height="172.68" x="565.5" y="264.54" fill="#fff" stroke="#232323" stroke-miterlimit="10" stroke-width="2"></rect><path fill="#232323" d="m523.61,143.51c-12.95,6.26-21.88,19.51-21.88,34.86l5.06,86.17h38.69v-86.17c0-15.34-8.93-28.6-21.88-34.86Z" opacity=".2"></path><rect width="117.27" height="42.03" x="545.48" y="186.34" fill="#fff" stroke="#232323" stroke-linecap="round" stroke-linejoin="round" stroke-width="2"></rect><path fill="#fff" stroke="#232323" stroke-linecap="round" stroke-linejoin="round" stroke-width="2" d="m468.18,264.54l-12.8,33.35c-7.13,18.59-11.83,46.58,22.78,46.58s48.29-26.04,55.42-44.62l11.82-35.3h-77.23Z"></path><line x1="543.98" x2="621.88" y1="437.22" y2="437.22" fill="none" stroke="#232323" stroke-linecap="round" stroke-linejoin="round" stroke-width="2"></line><line x1="508.62" x2="508.62" y1="139.16" y2="131.23" fill="none" stroke="#232323" stroke-linecap="round" stroke-miterlimit="10" stroke-width="2"></line><line x1="515.04" x2="515.04" y1="139.16" y2="131.23" fill="none" stroke="#232323" stroke-linecap="round" stroke-miterlimit="10" stroke-width="2"></line><polygon fill="#232323" points="481.12 83.11 481.12 77.34 471.66 83.02 481.12 83.11"></polygon><polygon fill="#cad6f4" points="501.09 83.65 479.85 81.99 479.85 109.8 502.62 131.98 544 131.98 501.09 83.65"></polygon><path fill="#cad6f4" d="m490.47,69.2h0c5.86,0,10.62,4.76,10.62,10.62v14.73h-21.24v-14.73c0-5.86,4.76-10.62,10.62-10.62Z"></path><rect width="41.02" height="41.02" x="479.85" y="90.96" fill="#cad6f4" rx="20.51" ry="20.51"></rect><circle cx="486.36" cy="77.87" r="2.19" fill="#232323"></circle><path fill="#fff" stroke="#232323" stroke-linecap="round" stroke-linejoin="round" stroke-width="2" d="m505.09,88.63l38.36,31.53s-27.38,6.83-38.61-2.67h0c-7.78-6.58-8.75-18.22-2.17-26l2.42-2.86Z"></path><path fill="none" stroke="#0096e0" stroke-linecap="round" stroke-linejoin="round" stroke-width="2" d="M397.65 140.69s-2.62 23.77 22.02 28.9c24.64 5.13 18.07-13.4 9.18-13.98-8.89-.58-21.42 13.68 24.05 30.73M463.4 136.88s7.92 42.19 32.56 47.32 20.52-9 10.83-10.6c-9.84-1.62-9.83 14.57 21.73 25.88"></path><g><circle cx="103.57" cy="355.13" r="21.01" fill="#fff"></circle><circle cx="110.44" cy="252.14" r="22.43" fill="#fff"></circle><polyline fill="#fff" points="88.06 250.64 82.61 353.73 124.53 356.52 132.81 253.63 88.06 250.64"></polyline><line x1="124.53" x2="132.81" y1="356.52" y2="253.63" fill="none" stroke="#232323" stroke-linecap="round" stroke-linejoin="round" stroke-width="2"></line><line x1="88.06" x2="82.61" y1="250.64" y2="353.73" fill="none" stroke="#232323" stroke-linecap="round" stroke-linejoin="round" stroke-width="2"></line><polygon fill="#fff" points="125.42 398.96 124.64 355 82.62 355.26 85.29 400.05 125.42 398.96"></polygon><line x1="85.29" x2="82.72" y1="400.05" y2="355.09" fill="none" stroke="#232323" stroke-linecap="round" stroke-linejoin="round" stroke-width="2"></line><line x1="123.33" x2="126.26" y1="362.35" y2="399.57" fill="none" stroke="#232323" stroke-linecap="round" stroke-linejoin="round" stroke-width="2"></line><path fill="none" stroke="#232323" stroke-linecap="round" stroke-linejoin="round" stroke-width="2" d="m82.62,355.26c-.01-1.97.02-3.22.2-5.44"></path><path fill="#fff" d="m412.72,236.29s7.62-20.89,11.43-23.72c3.8-2.83,19.59-8.23,22.95-8.95,3.35-.71,12.35-2.98,13.29.62.94,3.6-7.65,5.89-12.08,8.05-2.37,1.16-13.93,5.77-16.13,9.92-2.19,4.15,4.96,11.56,4.96,11.56,2.7,2.74,6.97,2.68,9.81,1.55,2.96-1.18,6.64-5.37,9.51-4.7,2.49.58,5.67,3.63-2.39,10.91-7.19,6.49-20.31,15.58-23.05,17.47l-18.3-22.72Z"></path><circle cx="332.99" cy="306.88" r="21.01" fill="#fff"></circle><circle cx="258.49" cy="235.44" r="22.43" fill="#fff"></circle><polyline fill="#fff" points="242.96 251.63 318.45 322.04 347.53 291.71 274.01 219.25 242.96 251.63"></polyline><line x1="347.53" x2="274.01" y1="291.71" y2="219.25" fill="none" stroke="#232323" stroke-linecap="round" stroke-linejoin="round" stroke-width="2"></line><line x1="242.96" x2="318.45" y1="251.63" y2="322.04" fill="none" stroke="#232323" stroke-linecap="round" stroke-linejoin="round" stroke-width="2"></line><g><circle cx="420.79" cy="248.55" r="14.58" fill="#fff"></circle><polygon fill="#fff" points="412.72 236.4 428.85 260.7 344.62 324.34 321.38 289.33 412.72 236.4"></polygon><line x1="432.26" x2="344.62" y1="257.56" y2="324.34" fill="none" stroke="#232323" stroke-linecap="round" stroke-linejoin="round" stroke-width="2"></line><line x1="328.24" x2="412.72" y1="286.4" y2="236.4" fill="none" stroke="#232323" stroke-linecap="round" stroke-linejoin="round" stroke-width="2"></line><path fill="none" stroke="#232323" stroke-linecap="round" stroke-linejoin="round" stroke-width="2" d="m344.62,324.34c-9.67,6.42-22.71,3.78-29.12-5.88"></path></g><path fill="none" stroke="#232323" stroke-linecap="round" stroke-linejoin="round" stroke-width="2" d="m430.51,258.9c2.75-1.89,16.37-10.87,23.57-17.36,8.06-7.28,4.89-10.33,2.39-10.91-2.88-.67-6.55,3.53-9.51,4.7-2.84,1.13-7.11,1.19-9.81-1.55,0,0-7.16-7.41-4.96-11.56,2.19-4.15,13.75-8.76,16.13-9.92,4.43-2.16,13.02-4.45,12.08-8.05-.94-3.6-9.94-1.34-13.29-.62-3.35.71-19.14,6.12-22.95,8.95-3.8,2.83-11.43,23.72-11.43,23.72"></path><g><path fill="#fff" d="m235.91,121.51s-18.24-15.34-38.65-13.37c-20.41,1.98-28.38,16.06-28.38,16.06l-.1,90.37,39.07-.62.98-24.28c4.17-.37,18.56.67,22.14-2.64,3.58-3.32,4.72-16.51,4.72-16.51l7.73-3.07-5.82-20.46c1.31-7.36.83-14.54-1.69-25.49Z"></path><path fill="none" stroke="#232323" stroke-linecap="round" stroke-linejoin="round" stroke-width="2" d="m235.91,121.51s-18.24-15.34-38.65-13.37c-20.41,1.98-28.38,16.06-28.38,16.06l-.1,90.37,39.07-.62.98-24.28c4.17-.37,18.56.67,22.14-2.64,3.58-3.32,4.72-16.51,4.72-16.51l7.73-3.07-5.82-20.46c1.31-7.36.83-14.54-1.69-25.49Z"></path><path fill="#232323" d="m244.33,99.49s-2.27,6.7-3.23,8.16c-3.07-1.85-8.49-5.98-17.44-6.39-8.94-.42-11.75,3.55-13.96,3.05-2.21-.49-13.97-3.74-21.71-3.2-7.74.54-13.87,1.56-21.16,9.96-7.29,8.39-3.96,24.64-3.96,24.64-4.08,10.17-1.82,22.58,5.85,33.67l2.23-3.6c-3.57-20.68,5.97-30.36,19.45-35.06l20.86-3.29c10.62,8.16,23.54,7.74,30.98,1.64,7.43-6.1,10.9-18.66,2.1-29.58Z"></path><path fill="#232323" d="m206.38,118.71l-3.4,33.1-6.65,2.53s.73-14.06-8.54-13.27c-9.27.79-14.78,11.34-5.77,24.98-8.21,3.99-11.03,5.12-13.2,5.08l-2.57-40.04,40.13-12.39Z"></path><polygon fill="#232323" points="202.47 139.22 220.97 123.25 199 117.53 195.76 130.02 202.47 139.22"></polygon><path fill="#232323" d="m202.99,151.81s4.69,11.94,8.53,15.04c3.84,3.1,23.98,5.43,23.98,5.43,0,0-1.13,11.59-3.79,13.88-2.66,2.29-8.45,4.63-17.78,4.29s-14.28-3.62-15.12-7.32c-.83-3.7-2.46-28.79-2.46-28.79l6.65-2.53Z"></path><polygon fill="#232323" points="230.3 147.99 201.57 146.45 201.7 143.33 230.44 144.87 230.3 147.99"></polygon><path fill="#232323" d="m232.2,138.21h0c1.03,0,1.86.83,1.86,1.86v14.39c0,1.03-.83,1.86-1.86,1.86h0c-1.03,0-1.86-.83-1.86-1.86v-14.39c0-1.03.83-1.86,1.86-1.86Z" transform="rotate(.97 233.401 148.064)"></path></g><path fill="#cad6f4" d="m210.83,201.22h.05v-1.82c0-1.27-1.14-2.29-2.55-2.29h-42.94c-1.41,0-2.55,1.03-2.55,2.29v1.82h.05l-52.18,11.76,7.18,118.09h137.94l7.18-118.09-52.18-11.76Z"></path><rect width="137.94" height="68.97" x="117.9" y="331.08" fill="#cad6f4"></rect><circle cx="186.86" cy="331.08" r="68.97" fill="#cad6f4"></circle><rect width="53.44" height="72.82" x="257.25" y="228.31" fill="#cad6f4" transform="rotate(134.49 283.967 264.733)"></rect><circle cx="258.01" cy="239.25" r="26.72" fill="#cad6f4"></circle><circle cx="115.72" cy="239.25" r="26.72" fill="#cad6f4"></circle><rect width="53.44" height="74.21" x="83.73" y="238.88" fill="#cad6f4" transform="rotate(8.15 110.45 276.052)"></rect><line x1="58.75" x2="351.65" y1="400.05" y2="400.05" fill="none" stroke="#232323" stroke-linecap="round" stroke-linejoin="round" stroke-width="2"></line></g></g></svg>