<svg width="28" height="31" viewBox="0 0 28 31" fill="none" xmlns="http://www.w3.org/2000/svg">
<path d="M26.8976 25.6334C26.0404 24.9634 25.29 24.1953 24.6665 23.3499C23.9858 22.1828 23.5778 20.9083 23.4665 19.6011V15.7511C23.4724 13.698 22.623 11.7136 21.0778 10.1709C19.5327 8.62811 17.3982 7.63317 15.0754 7.37297V6.3676C15.0754 6.09165 14.9504 5.82701 14.7278 5.63189C14.5053 5.43677 14.2034 5.32715 13.8887 5.32715C13.574 5.32715 13.2722 5.43677 13.0496 5.63189C12.8271 5.82701 12.7021 6.09165 12.7021 6.3676V7.38856C10.4001 7.66751 8.29136 8.66847 6.76652 10.206C5.24168 11.7436 4.40403 13.7136 4.40872 15.7511V19.6011C4.29739 20.9083 3.88941 22.1828 3.20872 23.3499C2.59617 24.1934 1.85778 24.9614 1.01316 25.6334C0.918343 25.7064 0.842352 25.7963 0.790242 25.8971C0.738132 25.9979 0.711097 26.1073 0.710938 26.2179V27.2779C0.710938 27.4846 0.804588 27.6828 0.971287 27.8289C1.13799 27.9751 1.36408 28.0572 1.59983 28.0572H26.3109C26.5467 28.0572 26.7728 27.9751 26.9395 27.8289C27.1062 27.6828 27.1998 27.4846 27.1998 27.2779V26.2179C27.1997 26.1073 27.1726 25.9979 27.1205 25.8971C27.0684 25.7963 26.9924 25.7064 26.8976 25.6334ZM2.55983 26.4985C3.38686 25.798 4.11503 25.013 4.72872 24.1604C5.58615 22.7509 6.08643 21.1957 6.19538 19.6011V15.7511C6.16013 14.8377 6.33487 13.9275 6.7092 13.0745C7.08353 12.2216 7.64979 11.4434 8.37427 10.7863C9.09875 10.1293 9.96662 9.60675 10.9262 9.24989C11.8858 8.89302 12.9175 8.70911 13.9598 8.70911C15.0022 8.70911 16.0339 8.89302 16.9934 9.24989C17.953 9.60675 18.8209 10.1293 19.5454 10.7863C20.2699 11.4434 20.8361 12.2216 21.2105 13.0745C21.5848 13.9275 21.7595 14.8377 21.7243 15.7511V19.6011C21.8332 21.1957 22.3335 22.7509 23.1909 24.1604C23.8046 25.013 24.5328 25.798 25.3598 26.4985H2.55983Z" fill="#FF6200"/>
<path d="M13.9994 30.6598C14.5594 30.6484 15.0967 30.4639 15.5164 30.1387C15.9361 29.8135 16.2111 29.3686 16.2927 28.8828H11.6172C11.7012 29.3818 11.989 29.8371 12.4272 30.164C12.8654 30.4909 13.4241 30.667 13.9994 30.6598Z" fill="#FFA412"/>
<path d="M14.1745 8.44698C16.2831 8.44698 17.9925 6.55606 17.9925 4.22349C17.9925 1.89092 16.2831 0 14.1745 0C12.0658 0 10.3564 1.89092 10.3564 4.22349C10.3564 6.55606 12.0658 8.44698 14.1745 8.44698Z" fill="#FF6200"/>
</svg>
