<svg width="1404" height="311" viewBox="0 0 1404 311" fill="none" xmlns="http://www.w3.org/2000/svg">
<path d="M391.703 75.2119L399.338 78.3171C399.338 78.3171 393.238 86.116 386.561 85.1405C386.561 85.1405 385.103 80.7353 381.343 79.0761C381.343 79.0761 390.551 77.8121 391.703 75.2119Z" fill="#AA5F26"/>
<path d="M1383.23 75.2119L1390.86 78.3171C1390.86 78.3171 1384.76 86.116 1378.08 85.1405C1378.08 85.1405 1376.63 80.7353 1372.87 79.0761C1372.87 79.0761 1382.07 77.8121 1383.23 75.2119Z" fill="#AA5F26"/>
<path d="M327.455 184.879L323.163 174.694C323.163 174.694 337.406 172.656 342.991 179.841C342.991 179.841 339.801 185.56 341.776 190.705C341.775 190.705 331.33 183.379 327.455 184.879Z" fill="#2896E8"/>
<path d="M1318.98 184.879L1314.69 174.694C1314.69 174.694 1328.93 172.656 1334.51 179.841C1334.51 179.841 1331.32 185.56 1333.3 190.705C1333.3 190.705 1322.85 183.379 1318.98 184.879Z" fill="#2896E8"/>
<path d="M293.889 287.893C293.889 287.893 297.204 292.299 301.939 292.943C301.939 292.943 294.626 299.825 288.681 300.022C288.681 300.022 288.839 295.666 282.999 292.794C282.999 292.794 292.154 290.319 293.889 287.893ZM355.064 49.5371C355.064 49.5371 358.379 53.9423 363.114 54.5869C363.114 54.5869 355.801 61.4684 349.856 61.666C349.856 61.666 350.014 57.3094 344.174 54.4379C344.174 54.4379 353.328 51.9632 355.064 49.5371Z" fill="#FF3F36"/>
<path d="M1285.41 287.893C1285.41 287.893 1288.73 292.299 1293.46 292.943C1293.46 292.943 1286.15 299.825 1280.2 300.022C1280.2 300.022 1280.36 295.666 1274.52 292.794C1274.52 292.794 1283.68 290.319 1285.41 287.893ZM1346.59 49.5371C1346.59 49.5371 1349.9 53.9423 1354.64 54.5869C1354.64 54.5869 1347.32 61.4684 1341.38 61.666C1341.38 61.666 1341.54 57.3094 1335.7 54.4379C1335.7 54.4379 1344.85 51.9632 1346.59 49.5371Z" fill="#FF3F36"/>
<path d="M188.295 37.8517C188.295 37.8517 182.51 38.4727 180.328 46.3517C180.328 46.3517 175.37 42.5314 163.613 41.9103C163.613 41.9103 165.306 33.9844 172.41 32.5996C172.41 32.5996 181.696 32.9807 188.295 37.8517Z" fill="#6CD342"/>
<path d="M1179.82 37.8517C1179.82 37.8517 1174.03 38.4727 1171.85 46.3517C1171.85 46.3517 1166.89 42.5314 1155.14 41.9103C1155.14 41.9103 1156.83 33.9844 1163.93 32.5996C1163.93 32.5996 1173.22 32.9807 1179.82 37.8517Z" fill="#6CD342"/>
<path d="M99.7313 93.3535C99.7313 93.3535 95.3197 89.9802 91.3713 89.9911C91.3713 89.9911 95.8663 81.6762 92.738 78.1963C92.738 78.1963 95.8347 78.2669 98.6063 79.8775C101.063 81.303 102.448 83.9189 102.318 86.6304C102.213 88.8244 101.688 91.8495 99.7313 93.3535ZM408.973 153.65C408.973 153.65 403.89 149.762 399.338 149.775C399.338 149.775 404.518 140.193 400.913 136.183C400.913 136.183 404.481 136.264 407.676 138.119C410.506 139.763 412.105 142.776 411.955 145.903C411.833 148.431 411.228 151.915 408.973 153.65Z" fill="#F77402"/>
<path d="M1091.25 93.3535C1091.25 93.3535 1086.84 89.9802 1082.89 89.9911C1082.89 89.9911 1087.39 81.6762 1084.26 78.1963C1084.26 78.1963 1087.36 78.2669 1090.13 79.8775C1092.59 81.303 1093.97 83.9189 1093.84 86.6304C1093.74 88.8244 1093.21 91.8495 1091.25 93.3535ZM1400.5 153.65C1400.5 153.65 1395.41 149.762 1390.86 149.775C1390.86 149.775 1396.04 140.193 1392.44 136.183C1392.44 136.183 1396 136.264 1399.2 138.119C1402.03 139.763 1403.63 142.776 1403.48 145.903C1403.36 148.431 1402.75 151.915 1400.5 153.65Z" fill="#F77402"/>
<path d="M244.565 0.607422C244.565 0.607422 246.137 7.03884 249.987 9.84759C249.987 9.84759 238.91 14.7264 239.145 20.3439C239.145 20.3439 236.192 18.0637 234.792 14.5194C233.552 11.3782 234.312 7.84493 236.627 5.29965C238.498 3.24053 241.448 0.673289 244.565 0.607422ZM128.09 290.391C128.09 290.391 129.662 296.823 133.512 299.632C133.512 299.632 122.435 304.51 122.67 310.128C122.67 310.128 119.717 307.848 118.317 304.303C117.077 301.162 117.837 297.629 120.152 295.084C122.023 293.025 124.972 290.457 128.09 290.391ZM75.3649 186.603C75.3649 186.603 76.9365 193.034 80.7849 195.843C80.7849 195.843 69.7082 200.722 69.9432 206.339C69.9432 206.339 66.9899 204.059 65.5899 200.515C64.3499 197.373 65.1099 193.84 67.4249 191.295C69.2982 189.236 72.2482 186.67 75.3649 186.603Z" fill="#FF3F36"/>
<path d="M1236.09 0.607422C1236.09 0.607422 1237.66 7.03884 1241.51 9.84759C1241.51 9.84759 1230.43 14.7264 1230.67 20.3439C1230.67 20.3439 1227.71 18.0637 1226.31 14.5194C1225.07 11.3782 1225.83 7.84493 1228.15 5.29965C1230.02 3.24053 1232.97 0.673289 1236.09 0.607422ZM1119.61 290.391C1119.61 290.391 1121.18 296.823 1125.03 299.632C1125.03 299.632 1113.96 304.51 1114.19 310.128C1114.19 310.128 1111.24 307.848 1109.84 304.303C1108.6 301.162 1109.36 297.629 1111.67 295.084C1113.55 293.025 1116.49 290.457 1119.61 290.391ZM1066.89 186.603C1066.89 186.603 1068.46 193.034 1072.31 195.843C1072.31 195.843 1061.23 200.722 1061.47 206.339C1061.47 206.339 1058.51 204.059 1057.11 200.515C1055.87 197.373 1056.63 193.84 1058.95 191.295C1060.82 189.236 1063.77 186.67 1066.89 186.603Z" fill="#FF3F36"/>
<path d="M3.64989 184.154C3.64989 184.154 9.67323 185.922 15.3082 184.154C15.3082 184.154 15.3082 196.283 12.1349 198.477C12.1349 198.477 4.62156 199.453 0.476562 197.867C0.476562 197.867 4.29823 188.542 3.64989 184.154Z" fill="#6CD342"/>
<path d="M995.172 184.154C995.172 184.154 1001.2 185.922 1006.83 184.154C1006.83 184.154 1006.83 196.283 1003.66 198.477C1003.66 198.477 996.144 199.453 991.999 197.867C991.999 197.867 995.821 188.542 995.172 184.154Z" fill="#6CD342"/>
<path d="M106.054 271.274C106.054 271.274 112.536 281.032 122.164 282.512C122.164 282.512 118.183 290.092 108.461 290.092C108.461 290.092 96.8876 286.085 92.9993 277.721C93.0009 277.721 102.999 277.461 106.054 271.274ZM138.471 121.99C138.471 121.99 143.533 129.61 151.053 130.766C151.053 130.766 147.944 136.685 140.351 136.685C140.351 136.685 131.313 133.555 128.276 127.024C128.276 127.024 136.086 126.82 138.471 121.99Z" fill="#FFB902"/>
<path d="M1097.58 271.274C1097.58 271.274 1104.06 281.032 1113.69 282.512C1113.69 282.512 1109.7 290.092 1099.98 290.092C1099.98 290.092 1088.41 286.085 1084.52 277.721C1084.52 277.721 1094.52 277.461 1097.58 271.274ZM1129.99 121.99C1129.99 121.99 1135.05 129.61 1142.57 130.766C1142.57 130.766 1139.47 136.685 1131.87 136.685C1131.87 136.685 1122.83 133.555 1119.8 127.024C1119.8 127.024 1127.61 126.82 1129.99 121.99Z" fill="#FFB902"/>
<path d="M290.791 144.916L288.871 154.374L276.021 154.589L280.805 145.697L290.791 144.916Z" fill="#6CD342"/>
<path d="M1282.31 144.916L1280.39 154.374L1267.54 154.589L1272.33 145.697L1282.31 144.916Z" fill="#6CD342"/>
<path d="M275.911 90.1518C275.911 90.1518 270.828 86.2641 266.276 86.2766C266.276 86.2766 271.456 76.6946 267.853 72.6846C267.853 72.6846 271.421 72.7661 274.616 74.6214C277.446 76.2649 279.045 79.2775 278.895 82.4046C278.771 84.9342 278.166 88.4189 275.911 90.1518Z" fill="#F77402"/>
<path d="M1267.43 90.1518C1267.43 90.1518 1262.35 86.2641 1257.8 86.2766C1257.8 86.2766 1262.98 76.6946 1259.38 72.6846C1259.38 72.6846 1262.94 72.7661 1266.14 74.6214C1268.97 76.2649 1270.57 79.2775 1270.42 82.4046C1270.29 84.9342 1269.69 88.4189 1267.43 90.1518Z" fill="#F77402"/>
<path d="M229.038 138.522L243.113 121.574H231.992C231.992 121.574 227.168 130.557 229.038 138.522Z" fill="#F79F2B"/>
<path d="M1220.56 138.522L1234.64 121.574H1223.51C1223.51 121.574 1218.69 130.557 1220.56 138.522Z" fill="#F79F2B"/>
<path d="M336.89 60.7539L309.435 67.2559L320.308 75.2117C320.31 75.2117 332.283 69.8796 336.89 60.7539Z" fill="#6CD342"/>
<path d="M1328.41 60.7539L1300.96 67.2559L1311.83 75.2117C1311.83 75.2117 1323.81 69.8796 1328.41 60.7539Z" fill="#6CD342"/>
<path d="M266.995 35.0439C266.995 35.0439 270.333 36.8788 276.02 35.3545C276.02 35.3545 273.805 43.8466 269.093 47.0207C269.093 47.0207 267.49 44.2825 260.283 44.19C260.283 44.19 265.342 39.6483 266.995 35.0439Z" fill="#FFB902"/>
<path d="M1258.52 35.0439C1258.52 35.0439 1261.86 36.8788 1267.54 35.3545C1267.54 35.3545 1265.33 43.8466 1260.62 47.0207C1260.62 47.0207 1259.01 44.2825 1251.81 44.19C1251.81 44.19 1256.86 39.6483 1258.52 35.0439Z" fill="#FFB902"/>
</svg>
