<svg width="16" height="15" viewBox="0 0 16 15" fill="none" xmlns="http://www.w3.org/2000/svg">
<path fill-rule="evenodd" clip-rule="evenodd" d="M8.375 4.48575V1.13852H2C1.80109 1.13852 1.61032 1.21049 1.46967 1.33859C1.32902 1.4667 1.25 1.64045 1.25 1.82163V4.48575H8.375ZM8.375 5.62427H1.25V8.94873H8.375V5.62427ZM8.375 10.0872H1.25V12.7514C1.25 13.1285 1.586 13.4345 2 13.4345H8.375V10.0872ZM2 14.573C1.46957 14.573 0.960859 14.3811 0.585786 14.0395C0.210714 13.6978 0 13.2345 0 12.7514V1.82163C0 1.3385 0.210714 0.875163 0.585786 0.533542C0.960859 0.191921 1.46957 0 2 0H14C14.5304 0 15.0391 0.191921 15.4142 0.533542C15.7893 0.875163 16 1.3385 16 1.82163V12.7514C16 13.2345 15.7893 13.6978 15.4142 14.0395C15.0391 14.3811 14.5304 14.573 14 14.573H2ZM9.625 1.13852H14C14.1989 1.13852 14.3897 1.21049 14.5303 1.33859C14.671 1.4667 14.75 1.64045 14.75 1.82163V12.7514C14.75 12.9325 14.671 13.1063 14.5303 13.2344C14.3897 13.3625 14.1989 13.4345 14 13.4345H9.625V7.2865V1.13852Z" fill="#737373"/>
</svg>
