<svg width="32" height="33" viewBox="0 0 32 33" fill="none" xmlns="http://www.w3.org/2000/svg">
<path d="M27.414 24.7442L22.337 19.6672C23.386 18.0862 24 16.1932 24 14.1582C24 8.6442 19.514 4.1582 14 4.1582C8.486 4.1582 4 8.6442 4 14.1582C4 19.6722 8.486 24.1582 14 24.1582C16.035 24.1582 17.928 23.5442 19.509 22.4952L24.586 27.5722C25.366 28.3532 26.634 28.3532 27.414 27.5722C28.195 26.7912 28.195 25.5252 27.414 24.7442ZM7 14.1582C7 10.2982 10.14 7.1582 14 7.1582C17.86 7.1582 21 10.2982 21 14.1582C21 18.0182 17.86 21.1582 14 21.1582C10.14 21.1582 7 18.0182 7 14.1582Z" fill="#ffcc02"/>
</svg>
