<svg width="52" height="42" viewBox="0 0 52 42" fill="none" xmlns="http://www.w3.org/2000/svg">
<path d="M39.8836 24.712C41.8648 22.7535 42.2709 22.0984 42.2709 20.8609C42.2709 19.9367 41.847 18.9691 41.2071 18.2729L48.0301 11.6758C51.263 14.7757 52.7306 19.3649 51.6468 23.8107C50.9737 26.5716 49.9364 28.2236 47.1693 30.94C44.5591 33.5029 43.6136 34.0953 42.1347 34.0953C38.4594 34.0953 36.0589 30.6874 37.5284 27.5557C37.7766 27.0268 38.8363 25.7471 39.8836 24.712Z" fill="#6144BD"/>
<path d="M40.0084 17.43C39.2399 17.1382 37.5428 16.959 36.7509 17.5059C36.4799 17.6931 33.5357 20.3926 29.9386 23.8217L23.1534 17.2612C30.0228 10.693 30.7549 10.0584 32.3162 9.32119C36.4087 7.38875 40.7059 7.39488 44.679 9.33869C45.9397 9.9556 47.0638 10.7492 48.0301 11.6758L41.2071 18.2729C40.86 17.8953 40.4494 17.5976 40.0084 17.43Z" fill="#C09EFF"/>
<path d="M28.9225 24.7932C22.147 31.2907 21.4364 31.9071 19.8728 32.6447C14.3887 35.2316 7.98759 34.1428 3.92539 30.1135L7.35145 26.8009L10.7775 23.4883C11.7512 24.4701 13.25 24.9847 14.7253 24.6308C15.5704 24.4281 16.5953 23.5319 23.1534 17.2612L29.9386 23.8217C29.605 24.1397 29.2657 24.464 28.9225 24.7932Z" fill="#B484FF"/>
<path d="M1.59447 14.7766C2.5094 13.0973 6.69104 8.83841 7.9951 8.25784C10.0614 7.33778 12.7663 8.1325 14.0516 10.0369C14.6853 10.9756 14.9331 12.539 14.6315 13.6964C14.4129 14.536 13.9964 15.0927 12.372 16.716C10.3521 18.7349 9.69192 19.7774 9.69192 20.9491C9.69192 21.9283 10.1121 22.8174 10.7775 23.4883L7.35145 26.8009L3.92539 30.1135C3.50893 29.7004 3.11707 29.2564 2.75329 28.7823C-0.450533 24.6063 -0.886955 19.3316 1.59447 14.7766Z" fill="#6144BD"/>
<path d="M22.8505 4.375C22.8505 6.79125 20.8247 8.75 18.3256 8.75C15.8266 8.75 13.8008 6.79125 13.8008 4.375C13.8008 1.95875 15.8266 0 18.3256 0C20.8247 0 22.8505 1.95875 22.8505 4.375Z" fill="#6144BD"/>
<path d="M38.0087 37.625C38.0087 40.0412 35.9829 42 33.4839 42C30.9849 42 28.959 40.0412 28.959 37.625C28.959 35.2088 30.9849 33.25 33.4839 33.25C35.9829 33.25 38.0087 35.2088 38.0087 37.625Z" fill="#C09EFF"/>
</svg>
