<svg width="145" height="24" viewBox="0 0 145 24" fill="none" xmlns="http://www.w3.org/2000/svg">
<path d="M10.127 18.708C10.127 18.3564 10.0391 18.0391 9.86328 17.7559C9.6875 17.4629 9.35059 17.1992 8.85254 16.9648C8.36426 16.7305 7.6416 16.5156 6.68457 16.3203C5.84473 16.1348 5.07324 15.915 4.37012 15.6611C3.67676 15.3975 3.08105 15.0801 2.58301 14.709C2.08496 14.3379 1.69922 13.8984 1.42578 13.3906C1.15234 12.8828 1.01562 12.2969 1.01562 11.6328C1.01562 10.9883 1.15723 10.3779 1.44043 9.80176C1.72363 9.22559 2.12891 8.71777 2.65625 8.27832C3.18359 7.83887 3.82324 7.49219 4.5752 7.23828C5.33691 6.98438 6.18652 6.85742 7.12402 6.85742C8.45215 6.85742 9.58984 7.08203 10.5371 7.53125C11.4941 7.9707 12.2266 8.57129 12.7344 9.33301C13.2422 10.085 13.4961 10.9346 13.4961 11.8818H9.96582C9.96582 11.4619 9.8584 11.0713 9.64355 10.71C9.43848 10.3389 9.12598 10.041 8.70605 9.81641C8.28613 9.58203 7.75879 9.46484 7.12402 9.46484C6.51855 9.46484 6.01562 9.5625 5.61523 9.75781C5.22461 9.94336 4.93164 10.1875 4.73633 10.4902C4.55078 10.793 4.45801 11.125 4.45801 11.4863C4.45801 11.75 4.50684 11.9893 4.60449 12.2041C4.71191 12.4092 4.8877 12.5996 5.13184 12.7754C5.37598 12.9414 5.70801 13.0977 6.12793 13.2441C6.55762 13.3906 7.09473 13.5322 7.73926 13.6689C8.9502 13.9229 9.99023 14.25 10.8594 14.6504C11.7383 15.041 12.4121 15.5488 12.8809 16.1738C13.3496 16.7891 13.584 17.5703 13.584 18.5176C13.584 19.2207 13.4326 19.8652 13.1299 20.4512C12.8369 21.0273 12.4072 21.5303 11.8408 21.96C11.2744 22.3799 10.5957 22.707 9.80469 22.9414C9.02344 23.1758 8.14453 23.293 7.16797 23.293C5.73242 23.293 4.5166 23.0391 3.52051 22.5312C2.52441 22.0137 1.76758 21.3545 1.25 20.5537C0.742188 19.7432 0.488281 18.9033 0.488281 18.0342H3.90137C3.94043 18.6885 4.12109 19.2109 4.44336 19.6016C4.77539 19.9824 5.18555 20.2607 5.67383 20.4365C6.17188 20.6025 6.68457 20.6855 7.21191 20.6855C7.84668 20.6855 8.37891 20.6025 8.80859 20.4365C9.23828 20.2607 9.56543 20.0264 9.79004 19.7334C10.0146 19.4307 10.127 19.0889 10.127 18.708ZM20.1611 0.5V23H16.6455V0.5H20.1611ZM19.5459 14.4893L18.4033 14.4746C18.4131 13.3809 18.5645 12.3701 18.8574 11.4424C19.1602 10.5146 19.5801 9.70898 20.1172 9.02539C20.6641 8.33203 21.3184 7.7998 22.0801 7.42871C22.8418 7.04785 23.6865 6.85742 24.6143 6.85742C25.3955 6.85742 26.0986 6.96484 26.7236 7.17969C27.3584 7.39453 27.9053 7.74121 28.3643 8.21973C28.8232 8.68848 29.1699 9.30371 29.4043 10.0654C29.6484 10.8174 29.7705 11.7354 29.7705 12.8193V23H26.2256V12.79C26.2256 12.0283 26.1133 11.4229 25.8887 10.9736C25.6738 10.5244 25.3564 10.2021 24.9365 10.0068C24.5166 9.80176 24.0039 9.69922 23.3984 9.69922C22.7637 9.69922 22.2021 9.82617 21.7139 10.0801C21.2354 10.334 20.835 10.6807 20.5127 11.1201C20.1904 11.5596 19.9463 12.0674 19.7803 12.6436C19.624 13.2197 19.5459 13.835 19.5459 14.4893ZM37.124 7.15039V23H33.5791V7.15039H37.124ZM33.3447 2.99023C33.3447 2.45312 33.5205 2.00879 33.8721 1.65723C34.2334 1.2959 34.7314 1.11523 35.3662 1.11523C35.9912 1.11523 36.4844 1.2959 36.8457 1.65723C37.207 2.00879 37.3877 2.45312 37.3877 2.99023C37.3877 3.51758 37.207 3.95703 36.8457 4.30859C36.4844 4.66016 35.9912 4.83594 35.3662 4.83594C34.7314 4.83594 34.2334 4.66016 33.8721 4.30859C33.5205 3.95703 33.3447 3.51758 33.3447 2.99023ZM44.5508 0.5V23H41.0059V0.5H44.5508ZM54.3945 7.15039L47.4951 14.7969L43.7158 18.6641L42.793 15.6758L45.6494 12.1455L50.1318 7.15039H54.3945ZM50.8936 23L45.752 15.5586L47.9785 13.083L54.9805 23H50.8936ZM65.5273 18.708C65.5273 18.3564 65.4395 18.0391 65.2637 17.7559C65.0879 17.4629 64.751 17.1992 64.2529 16.9648C63.7646 16.7305 63.042 16.5156 62.085 16.3203C61.2451 16.1348 60.4736 15.915 59.7705 15.6611C59.0771 15.3975 58.4814 15.0801 57.9834 14.709C57.4854 14.3379 57.0996 13.8984 56.8262 13.3906C56.5527 12.8828 56.416 12.2969 56.416 11.6328C56.416 10.9883 56.5576 10.3779 56.8408 9.80176C57.124 9.22559 57.5293 8.71777 58.0566 8.27832C58.584 7.83887 59.2236 7.49219 59.9756 7.23828C60.7373 6.98438 61.5869 6.85742 62.5244 6.85742C63.8525 6.85742 64.9902 7.08203 65.9375 7.53125C66.8945 7.9707 67.627 8.57129 68.1348 9.33301C68.6426 10.085 68.8965 10.9346 68.8965 11.8818H65.3662C65.3662 11.4619 65.2588 11.0713 65.0439 10.71C64.8389 10.3389 64.5264 10.041 64.1064 9.81641C63.6865 9.58203 63.1592 9.46484 62.5244 9.46484C61.9189 9.46484 61.416 9.5625 61.0156 9.75781C60.625 9.94336 60.332 10.1875 60.1367 10.4902C59.9512 10.793 59.8584 11.125 59.8584 11.4863C59.8584 11.75 59.9072 11.9893 60.0049 12.2041C60.1123 12.4092 60.2881 12.5996 60.5322 12.7754C60.7764 12.9414 61.1084 13.0977 61.5283 13.2441C61.958 13.3906 62.4951 13.5322 63.1396 13.6689C64.3506 13.9229 65.3906 14.25 66.2598 14.6504C67.1387 15.041 67.8125 15.5488 68.2812 16.1738C68.75 16.7891 68.9844 17.5703 68.9844 18.5176C68.9844 19.2207 68.833 19.8652 68.5303 20.4512C68.2373 21.0273 67.8076 21.5303 67.2412 21.96C66.6748 22.3799 65.9961 22.707 65.2051 22.9414C64.4238 23.1758 63.5449 23.293 62.5684 23.293C61.1328 23.293 59.917 23.0391 58.9209 22.5312C57.9248 22.0137 57.168 21.3545 56.6504 20.5537C56.1426 19.7432 55.8887 18.9033 55.8887 18.0342H59.3018C59.3408 18.6885 59.5215 19.2109 59.8438 19.6016C60.1758 19.9824 60.5859 20.2607 61.0742 20.4365C61.5723 20.6025 62.085 20.6855 62.6123 20.6855C63.2471 20.6855 63.7793 20.6025 64.209 20.4365C64.6387 20.2607 64.9658 20.0264 65.1904 19.7334C65.415 19.4307 65.5273 19.0889 65.5273 18.708ZM75.5615 0.5V23H72.0459V0.5H75.5615ZM74.9463 14.4893L73.8037 14.4746C73.8135 13.3809 73.9648 12.3701 74.2578 11.4424C74.5605 10.5146 74.9805 9.70898 75.5176 9.02539C76.0645 8.33203 76.7188 7.7998 77.4805 7.42871C78.2422 7.04785 79.0869 6.85742 80.0146 6.85742C80.7959 6.85742 81.499 6.96484 82.124 7.17969C82.7588 7.39453 83.3057 7.74121 83.7646 8.21973C84.2236 8.68848 84.5703 9.30371 84.8047 10.0654C85.0488 10.8174 85.1709 11.7354 85.1709 12.8193V23H81.626V12.79C81.626 12.0283 81.5137 11.4229 81.2891 10.9736C81.0742 10.5244 80.7568 10.2021 80.3369 10.0068C79.917 9.80176 79.4043 9.69922 78.7988 9.69922C78.1641 9.69922 77.6025 9.82617 77.1143 10.0801C76.6357 10.334 76.2354 10.6807 75.9131 11.1201C75.5908 11.5596 75.3467 12.0674 75.1807 12.6436C75.0244 13.2197 74.9463 13.835 74.9463 14.4893ZM97.6807 19.8213V12.2627C97.6807 11.6963 97.5781 11.208 97.373 10.7979C97.168 10.3877 96.8555 10.0703 96.4355 9.8457C96.0254 9.62109 95.5078 9.50879 94.8828 9.50879C94.3066 9.50879 93.8086 9.60645 93.3887 9.80176C92.9688 9.99707 92.6416 10.2607 92.4072 10.5928C92.1729 10.9248 92.0557 11.3008 92.0557 11.7207H88.54C88.54 11.0957 88.6914 10.4902 88.9941 9.9043C89.2969 9.31836 89.7363 8.7959 90.3125 8.33691C90.8887 7.87793 91.5771 7.5166 92.3779 7.25293C93.1787 6.98926 94.0771 6.85742 95.0732 6.85742C96.2646 6.85742 97.3193 7.05762 98.2373 7.45801C99.165 7.8584 99.8926 8.46387 100.42 9.27441C100.957 10.0752 101.226 11.0811 101.226 12.292V19.3379C101.226 20.0605 101.274 20.71 101.372 21.2861C101.479 21.8525 101.631 22.3457 101.826 22.7656V23H98.208C98.042 22.6191 97.9102 22.1357 97.8125 21.5498C97.7246 20.9541 97.6807 20.3779 97.6807 19.8213ZM98.1934 13.3613L98.2227 15.5439H95.6885C95.0342 15.5439 94.458 15.6074 93.96 15.7344C93.4619 15.8516 93.0469 16.0273 92.7148 16.2617C92.3828 16.4961 92.1338 16.7793 91.9678 17.1113C91.8018 17.4434 91.7188 17.8193 91.7188 18.2393C91.7188 18.6592 91.8164 19.0449 92.0117 19.3965C92.207 19.7383 92.4902 20.0068 92.8613 20.2021C93.2422 20.3975 93.7012 20.4951 94.2383 20.4951C94.9609 20.4951 95.5908 20.3486 96.1279 20.0557C96.6748 19.7529 97.1045 19.3867 97.417 18.957C97.7295 18.5176 97.8955 18.1025 97.915 17.7119L99.0576 19.2793C98.9404 19.6797 98.7402 20.1094 98.457 20.5684C98.1738 21.0273 97.8027 21.4668 97.3438 21.8867C96.8945 22.2969 96.3525 22.6338 95.7178 22.8975C95.0928 23.1611 94.3701 23.293 93.5498 23.293C92.5146 23.293 91.5918 23.0879 90.7812 22.6777C89.9707 22.2578 89.3359 21.6963 88.877 20.9932C88.418 20.2803 88.1885 19.4746 88.1885 18.5762C88.1885 17.7363 88.3447 16.9941 88.6572 16.3496C88.9795 15.6953 89.4482 15.1484 90.0635 14.709C90.6885 14.2695 91.4502 13.9375 92.3486 13.7129C93.2471 13.4785 94.2725 13.3613 95.4248 13.3613H98.1934Z" fill="#ffcc02"/>
<path d="M106.895 1.67188H110.381L116.211 17.7266L122.026 1.67188H125.527L117.603 23H114.805L106.895 1.67188ZM105.137 1.67188H108.55L109.165 16.4229V23H105.137V1.67188ZM123.857 1.67188H127.285V23H123.257V16.4229L123.857 1.67188ZM144.922 19.8359V23H134.199V19.8359H144.922ZM135.415 1.67188V23H131.387V1.67188H135.415Z" fill="#4D3AAB"/>
</svg>
