<svg width="17" height="17" viewBox="0 0 17 17" fill="none" xmlns="http://www.w3.org/2000/svg">
<g id="cds-react-aria-3861">
<path id="Vector" d="M14.38 6.36999H10.38L9.05 2.26999C9.03393 2.21541 9.00402 2.16592 8.96318 2.12631C8.92234 2.0867 8.87195 2.05832 8.81691 2.04393C8.76187 2.02954 8.70404 2.02963 8.64903 2.04418C8.59403 2.05873 8.54373 2.08726 8.503 2.12699C8.46686 2.16158 8.43856 2.20353 8.42 2.24999L7.07 6.36999H3.07C2.98669 6.37476 2.90804 6.41001 2.84903 6.46901C2.79002 6.52802 2.75478 6.60667 2.75 6.68999C2.74977 6.74092 2.76034 6.79132 2.78103 6.83787C2.80171 6.88441 2.83204 6.92603 2.87 6.95999L6.25 9.53999L4.95 13.62C4.93785 13.662 4.93417 13.706 4.93919 13.7495C4.9442 13.7929 4.9578 13.835 4.97921 13.8731C5.00061 13.9113 5.02938 13.9448 5.06385 13.9717C5.09833 13.9986 5.13781 14.0185 5.18 14.03C5.23061 14.0442 5.28373 14.0471 5.33558 14.0384C5.38743 14.0298 5.43674 14.0098 5.48 13.98L8.75 11.44L12.03 13.98C12.0916 14.0399 12.1741 14.0733 12.26 14.0733C12.3459 14.0733 12.4284 14.0399 12.49 13.98C12.5278 13.939 12.5535 13.8883 12.5641 13.8335C12.5747 13.7788 12.5698 13.7221 12.55 13.67L11.24 9.53999L14.61 6.95999C14.6451 6.93597 14.6751 6.90519 14.6982 6.86944C14.7213 6.83369 14.7371 6.7937 14.7445 6.75179C14.752 6.70989 14.751 6.66692 14.7416 6.6254C14.7323 6.58388 14.7147 6.54464 14.69 6.50999C14.6553 6.46135 14.6084 6.42272 14.554 6.39799C14.499 6.37399 14.491 6.36399 14.431 6.36999H14.38Z" fill="#F2D049"/>
<path id="Vector_2" fill-rule="evenodd" clip-rule="evenodd" d="M8.47205 1.57502C8.57706 1.54036 8.68794 1.52704 8.79817 1.53583C8.9084 1.54462 9.01576 1.57535 9.11395 1.62622C9.21214 1.67708 9.29917 1.74705 9.36994 1.83202C9.44071 1.91699 9.49379 2.01525 9.52606 2.12102L10.7421 5.87002H14.4101C14.519 5.86177 14.6281 5.88175 14.7271 5.92802L14.7471 5.93802L14.7591 5.94302C14.8932 6.00365 15.0091 6.09849 15.0951 6.21802L15.0961 6.22002C15.2221 6.39697 15.2729 6.61673 15.237 6.83104C15.2012 7.04534 15.0818 7.23668 14.9051 7.36302L11.8221 9.72302L13.0221 13.509C13.0708 13.6463 13.0811 13.7944 13.0518 13.9371C13.0226 14.0799 12.9549 14.2119 12.8561 14.319L12.8471 14.329L12.8371 14.339C12.6864 14.4851 12.4859 14.5688 12.2761 14.573C12.0662 14.5773 11.8625 14.5019 11.7061 14.362L8.74905 12.072L5.77406 14.384L5.76205 14.392C5.61279 14.4941 5.43513 14.5466 5.25435 14.5419C5.07357 14.5372 4.89886 14.4757 4.75505 14.366C4.62467 14.2638 4.5278 14.1249 4.47684 13.9672C4.42589 13.8095 4.42318 13.6402 4.46905 13.481L4.47205 13.468L5.66605 9.72402L2.54905 7.34602L2.53505 7.33302C2.4443 7.25193 2.37179 7.15251 2.32232 7.04132C2.27285 6.93014 2.24753 6.80971 2.24805 6.68802V6.66002C2.25999 6.45422 2.34719 6.26 2.49305 6.11432C2.63891 5.96865 2.83324 5.8817 3.03905 5.87002L3.05405 5.86902H6.70605L7.94905 2.07902L7.95505 2.06302C8.0005 1.95044 8.06953 1.84891 8.1575 1.76525C8.24547 1.68159 8.35034 1.61775 8.46505 1.57802L8.47205 1.57502ZM5.04705 14.512H5.04505L5.17905 14.03L5.04705 14.512ZM8.72905 2.90702L7.43106 6.87002H3.57505L6.83206 9.35602L5.58806 13.263L8.74805 10.807L11.8881 13.238L10.6561 9.35602L13.9041 6.87002H10.0161L8.72905 2.90702Z" fill="#7C6919"/>
</g>
</svg>
