<svg width="163" height="125" viewBox="0 0 163 125" fill="none" xmlns="http://www.w3.org/2000/svg">
<g id="freepik--Box--inject-2">
<g id="freepik--box--inject-2">
<g id="freepik--back-box--inject-2">
<path id="Vector" d="M21.3711 90.6651L81.5776 57.21L141.791 90.6651L81.5776 124.12L21.3711 90.6651Z" fill="#ffcc02"/>
<path id="Vector_2" opacity="0.25" d="M21.3711 90.6651L81.5776 57.21L141.791 90.6651L81.5776 124.12L21.3711 90.6651Z" fill="black"/>
<path id="Vector_3" d="M81.5765 57.2098V0L20.1455 34.1311L71.5421 62.7857L81.5765 57.2098Z" fill="#ffcc02" fill-opacity="0.74"/>
<path id="Vector_4" d="M81.5771 0V57.2098L91.618 62.7857L143.015 34.1311L81.5771 0Z" fill="#ffcc02" fill-opacity="0.71"/>
<path id="Vector_5" d="M81.5771 0L101.298 8.04436L162.735 42.1817L143.015 34.1311L81.5771 0Z" fill="#EFE8FD"/>
<path id="Vector_6" d="M81.5763 0L64.4784 6.59303L3.04102 40.7242L20.1453 34.1311L81.5763 0Z" fill="#EFE8FD"/>
<path id="Vector_7" opacity="0.2" d="M81.5763 0L19.8166 33.4551L3.04102 40.7242L20.1453 34.1311L81.5763 0Z" fill="white"/>
</g>
<g id="freepik--front-box--inject-2">
<path id="Vector_8" d="M20.1455 34.1309V89.9886L81.5765 124.12V68.3612L20.1455 34.1309Z" fill="#ffcc02"/>
<path id="Vector_9" d="M20.1454 34.1309L0.598633 60.4099L62.0361 94.6403L81.5764 68.3612L20.1454 34.1309Z" fill="#EFE8FD"/>
<path id="Vector_10" opacity="0.2" d="M0.598633 60.4102L61.6945 93.09L81.5764 68.3615L62.0361 94.6405L0.598633 60.4102Z" fill="white"/>
<path id="Vector_11" d="M143.014 34.1309L143.007 89.9886L81.5762 124.12V68.3612" fill="#ffcc02" fill-opacity="0.78"/>
<path id="Vector_12" d="M81.5762 68.3613L82.7878 121.992L127.405 98.6595L81.5762 124.12V68.3613Z" fill="#ffcc02"/>
<path id="Vector_13" d="M143.014 34.1309L162.56 60.4099L101.123 94.6403L81.5762 68.3612L143.014 34.1309Z" fill="#EFE8FD"/>
<g id="Group" opacity="0.8">
<path id="Vector_14" d="M98.0709 109.47C97.9837 109.47 97.9001 109.437 97.8385 109.377C97.7768 109.318 97.7422 109.238 97.7422 109.154V102.083C97.7571 102.011 97.7974 101.947 97.8562 101.901C97.9149 101.854 97.9885 101.829 98.0644 101.829C98.1404 101.829 98.2139 101.854 98.2727 101.901C98.3314 101.947 98.3717 102.011 98.3867 102.083V109.154C98.3867 109.235 98.3539 109.314 98.295 109.373C98.2361 109.432 98.1558 109.467 98.0709 109.47Z" fill="#E0E0E0"/>
<path id="Vector_15" d="M97.1095 104.533C97.055 104.533 97.0013 104.521 96.9533 104.496C96.9053 104.471 96.8646 104.435 96.835 104.391C96.8054 104.347 96.7879 104.297 96.784 104.244C96.7802 104.192 96.7901 104.14 96.813 104.092L97.9795 101.524L99.2685 102.97C99.3257 103.033 99.3545 103.115 99.3484 103.199C99.3424 103.283 99.302 103.361 99.2362 103.416C99.1704 103.471 99.0846 103.499 98.9975 103.493C98.9105 103.487 98.8295 103.448 98.7722 103.385L98.1277 102.697L97.3737 104.371C97.3475 104.418 97.3095 104.457 97.2633 104.485C97.2171 104.513 97.1641 104.529 97.1095 104.533Z" fill="#E0E0E0"/>
<path id="Vector_16" d="M101.107 107.808C101.02 107.808 100.936 107.775 100.875 107.715C100.813 107.656 100.778 107.575 100.778 107.492V100.421C100.793 100.349 100.834 100.285 100.892 100.239C100.951 100.192 101.025 100.167 101.101 100.167C101.176 100.167 101.25 100.192 101.309 100.239C101.368 100.285 101.408 100.349 101.423 100.421V107.492C101.423 107.573 101.39 107.652 101.331 107.711C101.272 107.77 101.192 107.805 101.107 107.808Z" fill="#E0E0E0"/>
<path id="Vector_17" d="M100.146 102.87C100.103 102.88 100.059 102.88 100.017 102.87C99.977 102.854 99.9409 102.831 99.9106 102.801C99.8803 102.771 99.8564 102.736 99.8402 102.697C99.8241 102.659 99.816 102.617 99.8164 102.576C99.8169 102.534 99.8259 102.493 99.8428 102.455L101.009 99.8623L102.298 101.307C102.36 101.367 102.394 101.447 102.394 101.531C102.394 101.614 102.36 101.695 102.298 101.754C102.232 101.808 102.146 101.834 102.06 101.829C101.973 101.823 101.892 101.785 101.834 101.723L101.19 101.035L100.442 102.703C100.414 102.754 100.371 102.797 100.319 102.827C100.266 102.856 100.206 102.872 100.146 102.87Z" fill="#E0E0E0"/>
</g>
<g id="Group_2" opacity="0.8">
<path id="Vector_18" d="M89.3279 114.271C89.202 114.271 89.078 114.241 88.967 114.184C88.838 114.103 88.7337 113.99 88.6647 113.857C88.5957 113.724 88.5643 113.576 88.5738 113.428V112.559C88.5642 112.513 88.5654 112.466 88.5771 112.42C88.5889 112.375 88.611 112.333 88.6418 112.296C88.6726 112.26 88.7114 112.231 88.7554 112.211C88.7994 112.191 88.8474 112.181 88.8961 112.181C88.9447 112.181 88.9928 112.191 89.0367 112.211C89.0807 112.231 89.1195 112.26 89.1503 112.296C89.1812 112.333 89.2033 112.375 89.215 112.42C89.2268 112.466 89.2279 112.513 89.2183 112.559V113.428C89.2183 113.552 89.257 113.62 89.2828 113.632C89.3085 113.645 89.3794 113.632 89.4954 113.583C89.6976 113.401 89.8569 113.179 89.9625 112.933C90.0681 112.687 90.1176 112.422 90.1077 112.156V108.534C90.0981 108.488 90.0992 108.441 90.111 108.395C90.1227 108.35 90.1448 108.307 90.1756 108.271C90.2065 108.235 90.2453 108.206 90.2892 108.186C90.3332 108.166 90.3813 108.155 90.4299 108.155C90.4786 108.155 90.5266 108.166 90.5706 108.186C90.6146 108.206 90.6534 108.235 90.6842 108.271C90.715 108.307 90.7371 108.35 90.7489 108.395C90.7606 108.441 90.7617 108.488 90.7521 108.534V112.156C90.7678 112.531 90.692 112.904 90.5308 113.245C90.3697 113.587 90.1276 113.887 89.8241 114.122C89.6746 114.212 89.5038 114.263 89.3279 114.271Z" fill="#E0E0E0"/>
<path id="Vector_19" d="M85.874 111.356V110.828C85.954 109.428 86.3755 108.066 87.1044 106.851C87.8333 105.637 88.8491 104.605 90.0695 103.838C91.2489 103.181 92.3832 103.082 93.2468 103.566C94.1104 104.049 94.5873 105.035 94.5873 106.35V106.487L85.874 111.356ZM92.0287 103.876C91.4504 103.901 90.8886 104.07 90.3982 104.366C89.357 105.022 88.4754 105.888 87.8136 106.902C87.1518 107.917 86.7254 109.057 86.5636 110.245L93.9299 106.152C93.9576 105.754 93.8792 105.356 93.7022 104.996C93.5251 104.635 93.2552 104.325 92.9181 104.093C92.6464 103.947 92.3398 103.872 92.0287 103.876Z" fill="#E0E0E0"/>
</g>
</g>
</g>
</g>
</svg>
