<svg width="16" height="16" viewBox="0 0 16 16" fill="none" xmlns="http://www.w3.org/2000/svg">
<path fill-rule="evenodd" clip-rule="evenodd" d="M6.11 2.42969C5.63593 2.42969 5.1665 2.52306 4.72851 2.70448C4.29053 2.8859 3.89256 3.15181 3.55734 3.48703C3.22212 3.82225 2.95621 4.22021 2.77479 4.6582C2.59338 5.09619 2.5 5.56562 2.5 6.03969C2.5 6.51376 2.59338 6.98319 2.77479 7.42118C2.95621 7.85916 3.22212 8.25712 3.55734 8.59234C3.89256 8.92756 4.29053 9.19347 4.72851 9.37489C5.1665 9.55631 5.63593 9.64969 6.11 9.64969C7.06743 9.64969 7.98565 9.26935 8.66266 8.59234C9.33966 7.91534 9.72 6.99712 9.72 6.03969C9.72 5.08226 9.33966 4.16404 8.66266 3.48703C7.98565 2.81003 7.06743 2.42969 6.11 2.42969ZM1.5 6.03969C1.5 4.81704 1.9857 3.64447 2.85024 2.77993C3.71478 1.91538 4.88735 1.42969 6.11 1.42969C7.33265 1.42969 8.50522 1.91538 9.36976 2.77993C10.2343 3.64447 10.72 4.81704 10.72 6.03969C10.72 7.26234 10.2343 8.43491 9.36976 9.29945C8.50522 10.164 7.33265 10.6497 6.11 10.6497C4.88735 10.6497 3.71478 10.164 2.85024 9.29945C1.9857 8.43491 1.5 7.26234 1.5 6.03969Z" fill="#1F1F1F"/>
<path fill-rule="evenodd" clip-rule="evenodd" d="M9.3037 8.52734L14.3537 13.5873L13.6457 14.2933L8.5957 9.23334L9.3037 8.52734Z" fill="#1F1F1F"/>
</svg>
