<svg width="16" height="13" viewBox="0 0 16 13" fill="none" xmlns="http://www.w3.org/2000/svg">
<path id="Vector" d="M2.39673 12.4634H13.5962C15.053 12.4634 15.8309 11.6921 15.8309 10.2485V2.24609C15.8309 0.80249 15.053 0.03125 13.5962 0.03125H2.39673C0.939941 0.03125 0.162109 0.7959 0.162109 2.24609V10.2485C0.162109 11.6987 0.939941 12.4634 2.39673 12.4634ZM2.52198 10.9934C1.9419 10.9934 1.63208 10.7034 1.63208 10.0969V2.39771C1.63208 1.79126 1.9419 1.50122 2.52198 1.50122H4.92798V10.9934H2.52198ZM6.34522 10.9934V1.50122H9.64771V10.9934H6.34522ZM13.471 1.50122C14.0445 1.50122 14.3609 1.79126 14.3609 2.39771V10.0969C14.3609 10.7034 14.0445 10.9934 13.471 10.9934H11.065V1.50122H13.471Z" fill="#37352F"/>
</svg>
