<svg width="20" height="20" viewBox="0 0 20 20" fill="none" xmlns="http://www.w3.org/2000/svg">
<path d="M9.99996 20C8.02107 20 6.0867 19.4129 4.44166 18.3129C2.79663 17.213 1.51491 15.6497 0.758785 13.821C0.00265684 11.9922 -0.193897 9.98028 0.194009 8.03978C0.581914 6.09929 1.53682 4.31751 2.93788 2.91999C4.33893 1.52248 6.12314 0.572072 8.06461 0.189079C10.0061 -0.193914 12.0175 0.00773112 13.8443 0.768485C15.6712 1.52924 17.2312 2.81489 18.327 4.46271C19.4227 6.11052 20.005 8.0464 20 10.0253C19.9906 12.6722 18.9332 15.2077 17.0592 17.0771C15.1851 18.9464 12.6469 19.9973 9.99996 20ZM9.99996 0.758345C8.17321 0.758351 6.38746 1.29974 4.86823 2.31411C3.349 3.32848 2.16445 4.77034 1.46424 6.45756C0.764021 8.14478 0.579536 10.0017 0.934083 11.7937C1.28863 13.5857 2.1663 15.2324 3.45624 16.5259C4.74618 17.8194 6.39052 18.7015 8.18156 19.061C9.9726 19.4204 11.83 19.241 13.5191 18.5454C15.2082 17.8498 16.6533 16.6692 17.6718 15.1528C18.6904 13.6363 19.2366 11.852 19.2416 10.0253C19.2436 8.80989 19.0061 7.60603 18.5427 6.48246C18.0793 5.35889 17.399 4.33764 16.5408 3.47706C15.6826 2.61648 14.6632 1.93343 13.5409 1.46694C12.4186 1.00046 11.2153 0.759671 9.99996 0.758345Z" fill="#717171"/>
<path d="M8.71839 15.7792H11.0642V9.91473H12.6972L12.8691 7.95316H11.0642V6.83587C11.0642 6.37075 11.1552 6.18875 11.6052 6.18875H12.8691V4.1665H11.2462C9.50201 4.1665 8.71839 4.93496 8.71839 6.40108V7.96832H7.5V9.95518H8.71839V15.7792Z" fill="#717171"/>
</svg>
