<svg width="20" height="20" viewBox="0 0 20 20" fill="none" xmlns="http://www.w3.org/2000/svg">
<path d="M9.99997 20C8.02108 20 6.0867 19.4129 4.44166 18.3129C2.79663 17.213 1.51491 15.6497 0.758785 13.821C0.00265684 11.9922 -0.193897 9.98028 0.194009 8.03978C0.581915 6.09929 1.53685 4.31751 2.93791 2.91999C4.33896 1.52248 6.12314 0.572072 8.06462 0.189079C10.0061 -0.193914 12.0175 0.00773112 13.8443 0.768485C15.6712 1.52924 17.2312 2.81489 18.327 4.46271C19.4228 6.11052 20.005 8.0464 20 10.0253C19.9906 12.6722 18.9333 15.2077 17.0592 17.0771C15.1851 18.9464 12.6469 19.9973 9.99997 20ZM9.99997 0.758344C8.17322 0.758351 6.38746 1.29973 4.86823 2.31411C3.349 3.32848 2.16445 4.77034 1.46424 6.45756C0.764022 8.14478 0.579536 10.0017 0.934084 11.7937C1.28863 13.5857 2.1663 15.2324 3.45624 16.5259C4.74619 17.8194 6.39052 18.7015 8.18156 19.061C9.9726 19.4204 11.83 19.241 13.5191 18.5454C15.2082 17.8498 16.6533 16.6692 17.6719 15.1528C18.6904 13.6363 19.2366 11.852 19.2416 10.0253C19.2436 8.80989 19.0062 7.60603 18.5427 6.48246C18.0793 5.35889 17.399 4.33764 16.5408 3.47706C15.6826 2.61648 14.6632 1.93343 13.5409 1.46694C12.4186 1.00046 11.2154 0.759671 9.99997 0.758344Z" fill="#717171"/>
<path d="M13.1214 4.97241H6.60197C6.1697 4.97241 5.75518 5.1441 5.44952 5.44976C5.14386 5.75543 4.97217 6.16995 4.97217 6.60221V13.1216C4.97217 13.5539 5.14386 13.9684 5.44952 14.2741C5.75518 14.5797 6.1697 14.7514 6.60197 14.7514H13.1214C13.5536 14.7514 13.9682 14.5797 14.2738 14.2741C14.5795 13.9684 14.7512 13.5539 14.7512 13.1216V6.60221C14.7512 6.16995 14.5795 5.75543 14.2738 5.44976C13.9682 5.1441 13.5536 4.97241 13.1214 4.97241V4.97241ZM13.9363 13.1216H13.9362C13.9362 13.3377 13.8504 13.545 13.6976 13.6978C13.5448 13.8506 13.3375 13.9364 13.1214 13.9364H6.60197C6.38587 13.9364 6.17858 13.8506 6.02578 13.6978C5.87292 13.545 5.7871 13.3377 5.7871 13.1216V6.60218C5.7871 6.38608 5.87292 6.17878 6.02578 6.02599C6.17858 5.87312 6.38587 5.78731 6.60197 5.78731H13.1214C13.3375 5.78731 13.5448 5.87312 13.6976 6.02599C13.8504 6.17878 13.9362 6.38608 13.9362 6.60218L13.9363 13.1216Z" fill="#717171"/>
<path d="M9.86173 7.41711C9.21337 7.41711 8.59155 7.67468 8.13302 8.13314C7.67456 8.59167 7.41699 9.21349 7.41699 9.86185C7.41699 10.5102 7.67456 11.132 8.13302 11.5906C8.59155 12.049 9.21337 12.3066 9.86173 12.3066C10.5101 12.3066 11.1319 12.049 11.5904 11.5906C12.0489 11.132 12.3065 10.5102 12.3065 9.86185C12.3065 9.21349 12.0489 8.59167 11.5904 8.13314C11.1319 7.67468 10.5101 7.41711 9.86173 7.41711ZM9.86173 11.4916C9.42946 11.4916 9.01494 11.3199 8.70928 11.0143C8.40362 10.7086 8.23193 10.2941 8.23193 9.86181C8.23193 9.42955 8.40362 9.01503 8.70928 8.70937C9.01494 8.4037 9.42946 8.23201 9.86173 8.23201C10.294 8.23201 10.7085 8.4037 11.0142 8.70937C11.3198 9.01503 11.4915 9.42955 11.4915 9.86181C11.4915 10.2941 11.3198 10.7086 11.0142 11.0143C10.7085 11.3199 10.294 11.4916 9.86173 11.4916Z" fill="#717171"/>
<path d="M13.1213 7.21336C13.1213 7.55094 12.8476 7.82454 12.5101 7.82454C12.1725 7.82454 11.8989 7.55094 11.8989 7.21336C11.8989 6.87584 12.1725 6.60217 12.5101 6.60217C12.8476 6.60217 13.1213 6.87584 13.1213 7.21336Z" fill="#717171"/>
</svg>
