<svg width="18" height="22" viewBox="0 0 18 22" fill="none" xmlns="http://www.w3.org/2000/svg">
<path opacity="0.5" d="M9.33828 20.8378C10.4687 19.4428 11.4743 18.2493 12.3433 17.2175C15.6097 13.3393 17 11.6888 17 8.85563C17 6.68656 16.1045 4.72181 14.6571 3.30078L14.6317 3.27782C13.1856 1.87016 11.1959 1 9.00013 1C6.79192 1 4.79235 1.87941 3.34452 3.30078C1.89552 4.72196 1 6.68671 1 8.85563C1 11.6892 2.39005 13.3395 5.65671 17.2175C6.52624 18.2499 7.5329 19.4447 8.66428 20.8412C8.8116 21.0229 9.08186 21.0532 9.26714 20.9087C9.29413 20.8875 9.31792 20.8637 9.3385 20.8378L9.33828 20.8378ZM11.6818 16.6795C10.9041 17.6029 10.0165 18.6565 8.99987 19.9033C7.98323 18.6566 7.09569 17.6029 6.31791 16.6795C3.19081 12.9668 1.8597 11.387 1.8597 8.85533C1.8597 6.91927 2.65907 5.16553 3.95077 3.89727C5.2417 2.62862 7.02753 1.84383 9.00008 1.84383C10.9622 1.84383 12.7391 2.62017 14.0294 3.87627L14.0494 3.89727C15.3409 5.16553 16.1404 6.91927 16.1404 8.85533C16.1404 11.3868 14.8091 12.9667 11.6822 16.6795L11.6818 16.6795ZM8.99987 4.64874C7.81789 4.64874 6.7471 5.12005 5.97189 5.88092C5.19549 6.64374 4.71555 7.69526 4.71555 8.85578C4.71555 10.0171 5.19549 11.0694 5.97066 11.8306L5.99604 11.8536C6.76983 12.6015 7.83084 13.0632 9.00003 13.0632C10.1816 13.0632 11.2528 12.5915 12.0282 11.8296C12.8044 11.0696 13.2844 10.0173 13.2844 8.85593C13.2844 7.69562 12.8044 6.64384 12.0296 5.88283C11.2528 5.12041 10.182 4.6491 9.00003 4.6491L8.99987 4.64874ZM6.57736 6.47726C7.19681 5.86931 8.05338 5.49302 8.99987 5.49302C9.94616 5.49302 10.8029 5.86932 11.4224 6.47726C12.0415 7.08556 12.4247 7.92672 12.4247 8.85578C12.4247 9.78408 12.0409 10.6254 11.4214 11.2335C10.8034 11.8424 9.94682 12.2187 9.00013 12.2187C8.06362 12.2187 7.21548 11.8504 6.59901 11.2549L6.57862 11.2337C5.95917 10.6254 5.57538 9.78419 5.57538 8.85594C5.57538 7.92688 5.95857 7.08571 6.57765 6.47741L6.57736 6.47726Z" fill="#FFFDFB" stroke="#FFFDFB" stroke-width="0.75"/>
</svg>
