<svg width="24" height="28" viewBox="0 0 24 28" fill="none" xmlns="http://www.w3.org/2000/svg">
<path id="Vector" d="M14.8634 12.5703L13.1252 9.09406L17.5746 0.195312H18.0527C19.7852 0.195312 20.8652 1.26969 20.8652 3.00781C20.8652 3.49719 20.7865 3.82906 20.5671 4.26781L16.4159 12.5703H14.8634ZM23.1152 22.7291C23.1152 25.1928 21.1127 27.1953 18.649 27.1953C16.9446 27.1953 15.4146 26.2503 14.6496 24.7259L11.8652 19.1572L9.08086 24.7259C8.32148 26.2503 6.78586 27.1953 5.08148 27.1953C2.61773 27.1953 0.615234 25.1928 0.615234 22.7291C0.615234 18.3978 4.11961 14.8709 8.43961 14.8259L3.15773 4.26781C2.93836 3.82906 2.85961 3.49719 2.85961 3.00781C2.85961 1.27531 3.93398 0.195312 5.67211 0.195312H6.15023L13.4627 14.8203H15.2009C19.5602 14.8203 23.1096 18.3697 23.1096 22.7291H23.1152ZM8.57461 18.1953H8.52398C6.02648 18.1953 3.99023 20.2259 3.99023 22.7291C3.99023 23.3309 4.47961 23.8203 5.08148 23.8203C5.49773 23.8203 5.87461 23.5897 6.06023 23.2128L8.56898 18.1953H8.57461ZM19.7402 22.7291C19.7402 20.2316 17.7096 18.1953 15.2065 18.1953H15.1559L17.6646 23.2128C17.8502 23.5841 18.2271 23.8203 18.6434 23.8203C19.2452 23.8203 19.7346 23.3309 19.7346 22.7291H19.7402Z" fill="#A6A299"/>
</svg>
