<svg width="18" height="18" viewBox="0 0 18 18" fill="none" xmlns="http://www.w3.org/2000/svg">
<path opacity="0.6" d="M7.53759 15.0676C9.23464 15.0686 10.8819 14.4935 12.2098 13.4361L16.7719 18L18 16.7715L13.4379 12.2076C14.8589 10.4105 15.3851 8.06402 14.8678 5.83222C14.3504 3.59994 12.8457 1.72465 10.7791 0.736656C8.71232 -0.251544 6.30849 -0.245284 4.24724 0.754039C2.18589 1.75316 0.691341 3.63632 0.185778 5.87123C-0.319753 8.10609 0.218915 10.4497 1.64945 12.2393C3.08017 14.0289 5.24699 15.0699 7.53785 15.068L7.53759 15.0676ZM7.53759 1.73841C9.07398 1.73841 10.5475 2.34904 11.634 3.43586C12.7204 4.52269 13.3308 5.99676 13.3308 7.5337C13.3308 9.07065 12.7204 10.5447 11.634 11.6315C10.5475 12.7184 9.07398 13.329 7.53759 13.329C6.00099 13.329 4.52744 12.7184 3.441 11.6315C2.35457 10.5447 1.74436 9.07065 1.74436 7.5337C1.74436 5.99676 2.35457 4.52269 3.441 3.43586C4.52744 2.34904 6.00099 1.73841 7.53759 1.73841Z" fill="#EBEBEB"/>
</svg>
