<svg width="14" height="14" viewBox="0 0 14 14" fill="none" xmlns="http://www.w3.org/2000/svg">
<path id="Vector" d="M0 5.56446C0 8.63379 2.49511 11.129 5.56446 11.129C6.70605 11.129 7.75196 10.7803 8.62696 10.1855L11.7715 13.3301C11.9629 13.5283 12.2295 13.6172 12.496 13.6172C13.0771 13.6172 13.4942 13.1797 13.4942 12.6123C13.4942 12.3389 13.3984 12.0859 13.2139 11.8946L10.0898 8.76365C10.7392 7.86817 11.129 6.76074 11.129 5.56446C11.129 2.49511 8.63379 0 5.56446 0C2.49511 0 0 2.49511 0 5.56446ZM1.44922 5.56446C1.44922 3.29492 3.28808 1.44922 5.56446 1.44922C7.83398 1.44922 9.67969 3.29492 9.67969 5.56446C9.67969 7.83398 7.83398 9.67969 5.56446 9.67969C3.28808 9.67969 1.44922 7.83398 1.44922 5.56446Z" fill="#37352F" fill-opacity="0.65"/>
</svg>
