<svg width="10" height="11" viewBox="0 0 10 11" fill="none" xmlns="http://www.w3.org/2000/svg">
<path d="M8.48592 0.482108V1.20532H9.07802H9.40697V2.00889H9.07802H8.48592V2.73211V3.13389H7.82802V2.73211V2.00889H7.23592H6.90697V1.20532H7.23592H7.82802V0.482108V0.0803223H8.48592V0.482108ZM2.46947 5.14282L5.26223 6.65956L8.055 5.14282L5.26223 3.62608L2.46947 5.14282ZM5.26223 2.57139L9.02704 4.61447L9.99907 5.14282L9.02704 5.67117L5.26223 7.71425L1.49743 5.67117L0.525391 5.14282L1.49743 4.61447L5.26223 2.57139ZM2.24579 6.7801L3.21782 7.30845L2.46947 7.71425L5.26223 9.23099L8.055 7.71425L7.30664 7.30845L8.27868 6.7801L9.02704 7.1859L9.99907 7.71425L9.02704 8.2426L5.26223 10.2857L1.49743 8.2426L0.525391 7.71425L1.49743 7.1859L2.24579 6.7801Z" fill="black"/>
</svg>
