<svg width="22" height="22" viewBox="0 0 22 22" fill="none" xmlns="http://www.w3.org/2000/svg">
<path opacity="0.5" fill-rule="evenodd" clip-rule="evenodd" d="M11 1C5.48076 1 1 5.48076 1 11C1 16.5192 5.48076 21 11 21C16.5192 21 21 16.5192 21 11C21 5.48076 16.5192 1 11 1ZM11 2.33333C15.7832 2.33333 19.6667 6.21676 19.6667 11C19.6667 15.7832 15.7832 19.6667 11 19.6667C6.21676 19.6667 2.33333 15.7832 2.33333 11C2.33333 6.21676 6.21676 2.33333 11 2.33333ZM10.3833 11.2545L10.3847 11.2558C10.4166 11.3345 10.4653 11.4079 10.5287 11.4711L14.2413 15.1826C14.5013 15.4426 14.9239 15.4426 15.1839 15.1819C15.444 14.9219 15.444 14.4993 15.1839 14.2392L11.6666 10.7238V5.6667C11.6666 5.29869 11.368 5.00004 11 5.00004C10.632 5.00004 10.3333 5.29869 10.3333 5.6667V11C10.3333 11.0901 10.3513 11.1761 10.3833 11.2546L10.3833 11.2545Z" fill="#FFFDFB" stroke="#FFFDFB" stroke-width="0.5"/>
</svg>
