<svg width="20" height="20" viewBox="0 0 20 20" fill="none" xmlns="http://www.w3.org/2000/svg">
<path d="M9.99997 20C8.02108 20 6.0867 19.4129 4.44166 18.3129C2.79663 17.213 1.51491 15.6497 0.758785 13.821C0.00265684 11.9922 -0.193897 9.98028 0.194009 8.03978C0.581915 6.09929 1.53685 4.31751 2.93791 2.91999C4.33896 1.52248 6.12314 0.572072 8.06462 0.189079C10.0061 -0.193914 12.0175 0.00773112 13.8443 0.768485C15.6712 1.52924 17.2312 2.81489 18.327 4.46271C19.4228 6.11052 20.005 8.0464 20 10.0253C19.9906 12.6722 18.9333 15.2077 17.0592 17.0771C15.1851 18.9464 12.6469 19.9973 9.99997 20ZM9.99997 0.758345C8.17322 0.758351 6.38746 1.29974 4.86823 2.31411C3.349 3.32848 2.16445 4.77034 1.46424 6.45756C0.764022 8.14478 0.579536 10.0017 0.934084 11.7937C1.28863 13.5857 2.1663 15.2324 3.45624 16.5259C4.74619 17.8194 6.39052 18.7015 8.18156 19.061C9.9726 19.4204 11.83 19.241 13.5191 18.5454C15.2082 17.8498 16.6533 16.6692 17.6719 15.1528C18.6904 13.6363 19.2366 11.852 19.2416 10.0253C19.2436 8.80989 19.0062 7.60603 18.5427 6.48246C18.0793 5.35889 17.399 4.33764 16.5408 3.47706C15.6826 2.61648 14.6632 1.93343 13.5409 1.46694C12.4186 1.00046 11.2154 0.759671 9.99997 0.758345Z" fill="#717171"/>
<path d="M5.25366 13.2201C6.17764 13.8114 7.24635 14.1375 8.34307 14.1626C9.43978 14.1877 10.5223 13.911 11.4724 13.3627C12.4225 12.8143 13.2037 12.0154 13.7305 11.0532C14.2574 10.091 14.5097 9.00252 14.4599 7.90665C14.8715 7.61045 15.226 7.2422 15.5064 6.81969C15.1226 6.99079 14.7153 7.10327 14.2981 7.15336C14.7384 6.88966 15.0673 6.47443 15.2233 5.98552C14.8119 6.23182 14.36 6.40301 13.8886 6.49108C13.5705 6.15583 13.1511 5.9344 12.6948 5.86085C12.2386 5.78731 11.7708 5.86573 11.3634 6.08404C10.9561 6.30236 10.6318 6.64848 10.4404 7.06914C10.249 7.4898 10.2012 7.96169 10.3042 8.41221C9.46796 8.37109 8.6498 8.15395 7.9032 7.77499C7.1566 7.39603 6.49837 6.86377 5.97155 6.21302C5.70358 6.67335 5.6198 7.21805 5.73704 7.73763C5.85427 8.25722 6.16383 8.71316 6.6035 9.01383C6.27024 9.00334 5.94433 8.9132 5.65304 8.75094C5.64697 9.24123 5.81238 9.71823 6.12071 10.0995C6.42904 10.4807 6.86092 10.7423 7.34163 10.8389C7.03149 10.9219 6.70663 10.934 6.39118 10.8743C6.52498 11.292 6.78601 11.6573 7.13773 11.9193C7.48945 12.1813 7.91427 12.3268 8.35276 12.3354C7.47687 13.0275 6.36295 13.3455 5.25366 13.2201Z" fill="#717171"/>
</svg>
