<svg width="17" height="20" viewBox="0 0 17 20" fill="none" xmlns="http://www.w3.org/2000/svg">
<path opacity="0.5" d="M16.4953 17.8724C16.5121 18.1119 16.4933 18.4342 16.2848 18.7552C16.0226 19.1253 15.6287 19.4999 14.8825 19.5V19.5H2.10647C1.27532 19.5 0.683399 19.0142 0.547747 18.3571L0.547893 18.3571L0.545132 18.3452C0.480512 18.0667 0.493756 17.7934 0.532064 17.5216L0.533518 17.5113L0.534541 17.5009C0.593714 16.9009 0.729955 16.3419 0.971089 15.8527L0.976844 15.8411L0.981983 15.8291C1.64333 14.2906 2.80501 13.2043 4.44245 12.5641L4.44247 12.5641L4.44834 12.5618C5.12815 12.286 5.84573 12.1488 6.54106 12.1488H6.90005C7.28007 12.1488 7.65659 12.1463 8.03123 12.1439C8.77333 12.1392 9.50807 12.1345 10.2481 12.1487L10.2481 12.1488H10.2577C11.7158 12.1488 13.0438 12.5868 14.1562 13.4378L14.1561 13.4378L14.161 13.4414C15.1919 14.2106 15.8914 15.2336 16.2627 16.4423L16.2636 16.4452C16.3965 16.8688 16.4747 17.3382 16.4944 17.8562L16.4947 17.8643L16.4953 17.8724ZM8.48401 10.3563H8.41925C7.14272 10.3399 5.96391 9.83882 5.05832 8.94057C4.14146 8.00984 3.62038 6.72493 3.62038 5.35345V5.33924C3.70091 2.60462 5.83226 0.5 8.48391 0.5C11.1738 0.5 13.3064 2.66318 13.3267 5.44046C13.3263 6.76668 12.8273 7.99042 11.9254 8.92438C11.0309 9.85074 9.81101 10.3563 8.48401 10.3563ZM1.58605 16.1364L1.58541 16.1378C1.39824 16.5649 1.25672 17.0637 1.20834 17.5696C1.184 17.7722 1.18158 18.0112 1.2121 18.1969L1.2153 18.2164L1.22002 18.2355C1.29892 18.5556 1.55403 18.695 1.70674 18.7484C1.8604 18.8021 2.00953 18.8085 2.08559 18.8085H14.8616C15.0627 18.8085 15.2473 18.7692 15.4046 18.6705C15.5417 18.5844 15.6187 18.4745 15.6489 18.4284C15.7422 18.3014 15.7544 18.1686 15.7582 18.1257C15.763 18.0729 15.7629 18.0085 15.7629 17.9578C15.7629 17.9532 15.7629 17.9488 15.7629 17.9445V17.9322L15.7622 17.9199C15.7393 17.4543 15.6702 17.0581 15.5794 16.6899L15.576 16.6763L15.5719 16.6629C15.2456 15.5994 14.6351 14.7187 13.7275 14.0341C12.7055 13.2571 11.5232 12.8852 10.2247 12.8621L10.2247 12.8621H10.2159H9.32894H9.28783L9.28768 12.8621C8.50137 12.8621 7.68794 12.8624 6.8937 12.8835H6.54135C5.92816 12.8835 5.295 13.0029 4.66643 13.2618C3.22431 13.8202 2.19192 14.766 1.58605 16.1364ZM4.35705 5.85336C4.46089 6.83326 4.87081 7.73342 5.55175 8.42391C6.32163 9.20459 7.35795 9.64349 8.48406 9.64349C9.60787 9.64349 10.6692 9.20595 11.4428 8.39701C12.2053 7.59969 12.6373 6.55598 12.6373 5.43901C12.6373 3.09614 10.8188 1.21309 8.48401 1.21309C6.19721 1.21309 4.37857 3.04531 4.33082 5.34297L4.32021 5.85336H4.35705Z" fill="#FFFDFB" stroke="#FFFDFB"/>
</svg>
