<svg width="582" height="591" viewBox="0 0 582 591" fill="none" xmlns="http://www.w3.org/2000/svg">
<path opacity="0.24" d="M9.29797 590.93C85.587 589.7 160.887 573.47 230.901 543.15C300.915 512.82 364.271 469.01 417.35 414.202C470.43 359.394 512.2 294.668 540.26 223.72C568.33 152.772 582.15 76.9902 580.93 0.702148L0 10.0001L9.29797 590.93Z" fill="#ffcc02"/>
<path opacity="0.24" d="M6.64203 424.95C61.133 424.07 114.919 412.478 164.929 390.819C214.939 369.16 260.193 337.863 298.108 298.715C336.023 259.567 365.855 213.335 385.902 162.657C405.95 111.98 415.82 57.8499 414.95 3.35791L0 9.99994L6.64203 424.95Z" fill="#6144BD"/>
<path opacity="0.56" d="M3.98499 258.968C36.68 258.445 68.951 251.487 98.957 238.491C128.963 225.496 156.116 206.718 178.865 183.229C201.613 159.74 219.513 132.001 231.541 101.594C243.57 71.1881 249.491 38.7101 248.968 6.01514L0 10.0001L3.98499 258.968Z" fill="#4D3AAB"/>
</svg>
