<svg width="206" height="42" viewBox="0 0 206 42" fill="none" xmlns="http://www.w3.org/2000/svg">
<path d="M40.782 24.712C42.7632 22.7535 43.1693 22.0984 43.1693 20.8609C43.1693 19.9367 42.7454 18.9691 42.1055 18.2729L48.9286 11.6758C52.1614 14.7757 53.629 19.3649 52.5452 23.8107C51.8722 26.5716 50.8349 28.2236 48.0677 30.94C45.4575 33.5029 44.5121 34.0953 43.0331 34.0953C39.3578 34.0953 36.9574 30.6874 38.4268 27.5557C38.675 27.0268 39.7347 25.7471 40.782 24.712Z" fill="#6144BD"/>
<path d="M40.9069 17.43C40.1383 17.1382 38.4412 16.959 37.6494 17.5059C37.3783 17.6931 34.4342 20.3926 30.837 23.8217L24.0518 17.2612C30.9212 10.693 31.6533 10.0584 33.2146 9.32119C37.3071 7.38875 41.6044 7.39488 45.5774 9.33869C46.8382 9.9556 47.9623 10.7492 48.9286 11.6758L42.1055 18.2729C41.7584 17.8953 41.3478 17.5976 40.9069 17.43Z" fill="#C09EFF"/>
<path d="M29.821 24.7932C23.0454 31.2907 22.3348 31.9071 20.7713 32.6447C15.2872 35.2316 8.88602 34.1428 4.82382 30.1135L8.24989 26.8009L11.676 23.4883C12.6497 24.4701 14.1485 24.9847 15.6238 24.6308C16.4688 24.4281 17.4937 23.5319 24.0518 17.2612L30.837 23.8217C30.5034 24.1397 30.1642 24.464 29.821 24.7932Z" fill="#B484FF"/>
<path d="M2.49291 14.7766C3.40784 13.0973 7.58948 8.83841 8.89354 8.25784C10.9598 7.33778 13.6648 8.1325 14.9501 10.0369C15.5838 10.9756 15.8315 12.539 15.5299 13.6964C15.3114 14.536 14.8948 15.0927 13.2704 16.716C11.2505 18.7349 10.5904 19.7774 10.5904 20.9491C10.5904 21.9283 11.0106 22.8174 11.676 23.4883L8.24989 26.8009L4.82382 30.1135C4.40736 29.7004 4.01551 29.2564 3.65172 28.7823C0.447904 24.6063 0.0114821 19.3316 2.49291 14.7766Z" fill="#6144BD"/>
<path d="M23.7489 4.375C23.7489 6.79125 21.7231 8.75 19.2241 8.75C16.7251 8.75 14.6992 6.79125 14.6992 4.375C14.6992 1.95875 16.7251 0 19.2241 0C21.7231 0 23.7489 1.95875 23.7489 4.375Z" fill="#6144BD"/>
<path d="M38.9072 37.625C38.9072 40.0412 36.8813 42 34.3823 42C31.8833 42 29.8575 40.0412 29.8575 37.625C29.8575 35.2088 31.8833 33.25 34.3823 33.25C36.8813 33.25 38.9072 35.2088 38.9072 37.625Z" fill="#C09EFF"/>
<path d="M70.0254 25.708C70.0254 25.3564 69.9375 25.0391 69.7617 24.7559C69.5859 24.4629 69.249 24.1992 68.751 23.9648C68.2627 23.7305 67.54 23.5156 66.583 23.3203C65.7432 23.1348 64.9717 22.915 64.2686 22.6611C63.5752 22.3975 62.9795 22.0801 62.4814 21.709C61.9834 21.3379 61.5977 20.8984 61.3242 20.3906C61.0508 19.8828 60.9141 19.2969 60.9141 18.6328C60.9141 17.9883 61.0557 17.3779 61.3389 16.8018C61.6221 16.2256 62.0273 15.7178 62.5547 15.2783C63.082 14.8389 63.7217 14.4922 64.4736 14.2383C65.2354 13.9844 66.085 13.8574 67.0225 13.8574C68.3506 13.8574 69.4883 14.082 70.4355 14.5312C71.3926 14.9707 72.125 15.5713 72.6328 16.333C73.1406 17.085 73.3945 17.9346 73.3945 18.8818H69.8643C69.8643 18.4619 69.7568 18.0713 69.542 17.71C69.3369 17.3389 69.0244 17.041 68.6045 16.8164C68.1846 16.582 67.6572 16.4648 67.0225 16.4648C66.417 16.4648 65.9141 16.5625 65.5137 16.7578C65.123 16.9434 64.8301 17.1875 64.6348 17.4902C64.4492 17.793 64.3564 18.125 64.3564 18.4863C64.3564 18.75 64.4053 18.9893 64.5029 19.2041C64.6104 19.4092 64.7861 19.5996 65.0303 19.7754C65.2744 19.9414 65.6064 20.0977 66.0264 20.2441C66.4561 20.3906 66.9932 20.5322 67.6377 20.6689C68.8486 20.9229 69.8887 21.25 70.7578 21.6504C71.6367 22.041 72.3105 22.5488 72.7793 23.1738C73.248 23.7891 73.4824 24.5703 73.4824 25.5176C73.4824 26.2207 73.3311 26.8652 73.0283 27.4512C72.7354 28.0273 72.3057 28.5303 71.7393 28.96C71.1729 29.3799 70.4941 29.707 69.7031 29.9414C68.9219 30.1758 68.043 30.293 67.0664 30.293C65.6309 30.293 64.415 30.0391 63.4189 29.5312C62.4229 29.0137 61.666 28.3545 61.1484 27.5537C60.6406 26.7432 60.3867 25.9033 60.3867 25.0342H63.7998C63.8389 25.6885 64.0195 26.2109 64.3418 26.6016C64.6738 26.9824 65.084 27.2607 65.5723 27.4365C66.0703 27.6025 66.583 27.6855 67.1104 27.6855C67.7451 27.6855 68.2773 27.6025 68.707 27.4365C69.1367 27.2607 69.4639 27.0264 69.6885 26.7334C69.9131 26.4307 70.0254 26.0889 70.0254 25.708ZM80.0596 7.5V30H76.5439V7.5H80.0596ZM79.4443 21.4893L78.3018 21.4746C78.3115 20.3809 78.4629 19.3701 78.7559 18.4424C79.0586 17.5146 79.4785 16.709 80.0156 16.0254C80.5625 15.332 81.2168 14.7998 81.9785 14.4287C82.7402 14.0479 83.585 13.8574 84.5127 13.8574C85.2939 13.8574 85.9971 13.9648 86.6221 14.1797C87.2568 14.3945 87.8037 14.7412 88.2627 15.2197C88.7217 15.6885 89.0684 16.3037 89.3027 17.0654C89.5469 17.8174 89.6689 18.7354 89.6689 19.8193V30H86.124V19.79C86.124 19.0283 86.0117 18.4229 85.7871 17.9736C85.5723 17.5244 85.2549 17.2021 84.835 17.0068C84.415 16.8018 83.9023 16.6992 83.2969 16.6992C82.6621 16.6992 82.1006 16.8262 81.6123 17.0801C81.1338 17.334 80.7334 17.6807 80.4111 18.1201C80.0889 18.5596 79.8447 19.0674 79.6787 19.6436C79.5225 20.2197 79.4443 20.835 79.4443 21.4893ZM97.0225 14.1504V30H93.4775V14.1504H97.0225ZM93.2432 9.99023C93.2432 9.45312 93.4189 9.00879 93.7705 8.65723C94.1318 8.2959 94.6299 8.11523 95.2646 8.11523C95.8896 8.11523 96.3828 8.2959 96.7441 8.65723C97.1055 9.00879 97.2861 9.45312 97.2861 9.99023C97.2861 10.5176 97.1055 10.957 96.7441 11.3086C96.3828 11.6602 95.8896 11.8359 95.2646 11.8359C94.6299 11.8359 94.1318 11.6602 93.7705 11.3086C93.4189 10.957 93.2432 10.5176 93.2432 9.99023ZM104.449 7.5V30H100.904V7.5H104.449ZM114.293 14.1504L107.394 21.7969L103.614 25.6641L102.691 22.6758L105.548 19.1455L110.03 14.1504H114.293ZM110.792 30L105.65 22.5586L107.877 20.083L114.879 30H110.792ZM125.426 25.708C125.426 25.3564 125.338 25.0391 125.162 24.7559C124.986 24.4629 124.649 24.1992 124.151 23.9648C123.663 23.7305 122.94 23.5156 121.983 23.3203C121.144 23.1348 120.372 22.915 119.669 22.6611C118.976 22.3975 118.38 22.0801 117.882 21.709C117.384 21.3379 116.998 20.8984 116.725 20.3906C116.451 19.8828 116.314 19.2969 116.314 18.6328C116.314 17.9883 116.456 17.3779 116.739 16.8018C117.022 16.2256 117.428 15.7178 117.955 15.2783C118.482 14.8389 119.122 14.4922 119.874 14.2383C120.636 13.9844 121.485 13.8574 122.423 13.8574C123.751 13.8574 124.889 14.082 125.836 14.5312C126.793 14.9707 127.525 15.5713 128.033 16.333C128.541 17.085 128.795 17.9346 128.795 18.8818H125.265C125.265 18.4619 125.157 18.0713 124.942 17.71C124.737 17.3389 124.425 17.041 124.005 16.8164C123.585 16.582 123.058 16.4648 122.423 16.4648C121.817 16.4648 121.314 16.5625 120.914 16.7578C120.523 16.9434 120.23 17.1875 120.035 17.4902C119.85 17.793 119.757 18.125 119.757 18.4863C119.757 18.75 119.806 18.9893 119.903 19.2041C120.011 19.4092 120.187 19.5996 120.431 19.7754C120.675 19.9414 121.007 20.0977 121.427 20.2441C121.856 20.3906 122.394 20.5322 123.038 20.6689C124.249 20.9229 125.289 21.25 126.158 21.6504C127.037 22.041 127.711 22.5488 128.18 23.1738C128.648 23.7891 128.883 24.5703 128.883 25.5176C128.883 26.2207 128.731 26.8652 128.429 27.4512C128.136 28.0273 127.706 28.5303 127.14 28.96C126.573 29.3799 125.895 29.707 125.104 29.9414C124.322 30.1758 123.443 30.293 122.467 30.293C121.031 30.293 119.815 30.0391 118.819 29.5312C117.823 29.0137 117.066 28.3545 116.549 27.5537C116.041 26.7432 115.787 25.9033 115.787 25.0342H119.2C119.239 25.6885 119.42 26.2109 119.742 26.6016C120.074 26.9824 120.484 27.2607 120.973 27.4365C121.471 27.6025 121.983 27.6855 122.511 27.6855C123.146 27.6855 123.678 27.6025 124.107 27.4365C124.537 27.2607 124.864 27.0264 125.089 26.7334C125.313 26.4307 125.426 26.0889 125.426 25.708ZM135.46 7.5V30H131.944V7.5H135.46ZM134.845 21.4893L133.702 21.4746C133.712 20.3809 133.863 19.3701 134.156 18.4424C134.459 17.5146 134.879 16.709 135.416 16.0254C135.963 15.332 136.617 14.7998 137.379 14.4287C138.141 14.0479 138.985 13.8574 139.913 13.8574C140.694 13.8574 141.397 13.9648 142.022 14.1797C142.657 14.3945 143.204 14.7412 143.663 15.2197C144.122 15.6885 144.469 16.3037 144.703 17.0654C144.947 17.8174 145.069 18.7354 145.069 19.8193V30H141.524V19.79C141.524 19.0283 141.412 18.4229 141.188 17.9736C140.973 17.5244 140.655 17.2021 140.235 17.0068C139.815 16.8018 139.303 16.6992 138.697 16.6992C138.062 16.6992 137.501 16.8262 137.013 17.0801C136.534 17.334 136.134 17.6807 135.812 18.1201C135.489 18.5596 135.245 19.0674 135.079 19.6436C134.923 20.2197 134.845 20.835 134.845 21.4893ZM157.579 26.8213V19.2627C157.579 18.6963 157.477 18.208 157.271 17.7979C157.066 17.3877 156.754 17.0703 156.334 16.8457C155.924 16.6211 155.406 16.5088 154.781 16.5088C154.205 16.5088 153.707 16.6064 153.287 16.8018C152.867 16.9971 152.54 17.2607 152.306 17.5928C152.071 17.9248 151.954 18.3008 151.954 18.7207H148.438C148.438 18.0957 148.59 17.4902 148.893 16.9043C149.195 16.3184 149.635 15.7959 150.211 15.3369C150.787 14.8779 151.476 14.5166 152.276 14.2529C153.077 13.9893 153.976 13.8574 154.972 13.8574C156.163 13.8574 157.218 14.0576 158.136 14.458C159.063 14.8584 159.791 15.4639 160.318 16.2744C160.855 17.0752 161.124 18.0811 161.124 19.292V26.3379C161.124 27.0605 161.173 27.71 161.271 28.2861C161.378 28.8525 161.529 29.3457 161.725 29.7656V30H158.106C157.94 29.6191 157.809 29.1357 157.711 28.5498C157.623 27.9541 157.579 27.3779 157.579 26.8213ZM158.092 20.3613L158.121 22.5439H155.587C154.933 22.5439 154.356 22.6074 153.858 22.7344C153.36 22.8516 152.945 23.0273 152.613 23.2617C152.281 23.4961 152.032 23.7793 151.866 24.1113C151.7 24.4434 151.617 24.8193 151.617 25.2393C151.617 25.6592 151.715 26.0449 151.91 26.3965C152.105 26.7383 152.389 27.0068 152.76 27.2021C153.141 27.3975 153.6 27.4951 154.137 27.4951C154.859 27.4951 155.489 27.3486 156.026 27.0557C156.573 26.7529 157.003 26.3867 157.315 25.957C157.628 25.5176 157.794 25.1025 157.813 24.7119L158.956 26.2793C158.839 26.6797 158.639 27.1094 158.355 27.5684C158.072 28.0273 157.701 28.4668 157.242 28.8867C156.793 29.2969 156.251 29.6338 155.616 29.8975C154.991 30.1611 154.269 30.293 153.448 30.293C152.413 30.293 151.49 30.0879 150.68 29.6777C149.869 29.2578 149.234 28.6963 148.775 27.9932C148.316 27.2803 148.087 26.4746 148.087 25.5762C148.087 24.7363 148.243 23.9941 148.556 23.3496C148.878 22.6953 149.347 22.1484 149.962 21.709C150.587 21.2695 151.349 20.9375 152.247 20.7129C153.146 20.4785 154.171 20.3613 155.323 20.3613H158.092Z" fill="#ffcc02"/>
<path d="M166.793 8.67188H170.279L176.109 24.7266L181.925 8.67188H185.426L177.501 30H174.703L166.793 8.67188ZM165.035 8.67188H168.448L169.063 23.4229V30H165.035V8.67188ZM183.756 8.67188H187.184V30H183.155V23.4229L183.756 8.67188ZM204.82 26.8359V30H194.098V26.8359H204.82ZM195.313 8.67188V30H191.285V8.67188H195.313Z" fill="#4D3AAB"/>
</svg>
