<svg width="231" height="50" viewBox="0 0 231 50" fill="none" xmlns="http://www.w3.org/2000/svg">
<path d="M39.8836 32.712C41.8648 30.7535 42.2709 30.0984 42.2709 28.8609C42.2709 27.9367 41.847 26.9691 41.2071 26.2729L48.0301 19.6758C51.263 22.7757 52.7306 27.3649 51.6468 31.8107C50.9737 34.5716 49.9364 36.2236 47.1693 38.94C44.5591 41.5029 43.6136 42.0953 42.1347 42.0953C38.4594 42.0953 36.0589 38.6874 37.5284 35.5557C37.7766 35.0268 38.8363 33.7471 39.8836 32.712Z" fill="#6144BD"/>
<path d="M40.0084 25.43C39.2399 25.1382 37.5428 24.959 36.7509 25.5059C36.4799 25.6931 33.5357 28.3926 29.9386 31.8217L23.1534 25.2612C30.0228 18.693 30.7549 18.0584 32.3162 17.3212C36.4087 15.3888 40.7059 15.3949 44.679 17.3387C45.9397 17.9556 47.0638 18.7492 48.0301 19.6758L41.2071 26.2729C40.86 25.8953 40.4494 25.5976 40.0084 25.43Z" fill="#C09EFF"/>
<path d="M28.9225 32.7932C22.147 39.2907 21.4364 39.9071 19.8728 40.6447C14.3887 43.2316 7.98759 42.1428 3.92539 38.1135L7.35145 34.8009L10.7775 31.4883C11.7512 32.4701 13.25 32.9847 14.7253 32.6308C15.5704 32.4281 16.5953 31.5319 23.1534 25.2612L29.9386 31.8217C29.605 32.1397 29.2657 32.464 28.9225 32.7932Z" fill="#B484FF"/>
<path d="M1.59447 22.7766C2.5094 21.0973 6.69104 16.8384 7.9951 16.2578C10.0614 15.3378 12.7663 16.1325 14.0516 18.0369C14.6853 18.9756 14.9331 20.539 14.6315 21.6964C14.4129 22.536 13.9964 23.0927 12.372 24.716C10.3521 26.7349 9.69192 27.7774 9.69192 28.9491C9.69192 29.9283 10.1121 30.8174 10.7775 31.4883L7.35145 34.8009L3.92539 38.1135C3.50893 37.7004 3.11707 37.2564 2.75329 36.7823C-0.450533 32.6063 -0.886955 27.3316 1.59447 22.7766Z" fill="#6144BD"/>
<path d="M22.8505 12.375C22.8505 14.7912 20.8247 16.75 18.3256 16.75C15.8266 16.75 13.8008 14.7912 13.8008 12.375C13.8008 9.95875 15.8266 8 18.3256 8C20.8247 8 22.8505 9.95875 22.8505 12.375Z" fill="#6144BD"/>
<path d="M38.0087 45.625C38.0087 48.0412 35.9829 50 33.4839 50C30.9849 50 28.959 48.0412 28.959 45.625C28.959 43.2088 30.9849 41.25 33.4839 41.25C35.9829 41.25 38.0087 43.2088 38.0087 45.625Z" fill="#C09EFF"/>
<path d="M68.3107 38.24C67.3107 38.24 66.4107 38.09 65.6107 37.79C64.8107 37.49 64.1207 37.09 63.5407 36.59C62.9807 36.09 62.5307 35.56 62.1907 35L63.9607 33.5C64.3407 34.26 64.9007 34.89 65.6407 35.39C66.4007 35.87 67.3007 36.11 68.3407 36.11C69.2807 36.11 70.0307 35.91 70.5907 35.51C71.1507 35.11 71.4307 34.57 71.4307 33.89C71.4307 33.33 71.2607 32.89 70.9207 32.57C70.5807 32.25 70.1307 31.99 69.5707 31.79C69.0107 31.59 68.4007 31.41 67.7407 31.25C67.1807 31.11 66.6107 30.94 66.0307 30.74C65.4707 30.54 64.9607 30.29 64.5007 29.99C64.0407 29.69 63.6707 29.3 63.3907 28.82C63.1107 28.34 62.9707 27.75 62.9707 27.05C62.9707 25.83 63.4407 24.85 64.3807 24.11C65.3407 23.35 66.5907 22.97 68.1307 22.97C69.2507 22.97 70.2707 23.21 71.1907 23.69C72.1307 24.15 72.8607 24.85 73.3807 25.79L71.7607 26.99C71.3607 26.29 70.8307 25.79 70.1707 25.49C69.5307 25.17 68.8207 25.01 68.0407 25.01C67.2607 25.01 66.6107 25.17 66.0907 25.49C65.5707 25.81 65.3107 26.25 65.3107 26.81C65.3107 27.23 65.4307 27.57 65.6707 27.83C65.9107 28.09 66.2607 28.31 66.7207 28.49C67.2007 28.67 67.7807 28.84 68.4607 29C69.0807 29.14 69.7107 29.31 70.3507 29.51C70.9907 29.71 71.5807 29.97 72.1207 30.29C72.6607 30.61 73.0907 31.04 73.4107 31.58C73.7507 32.1 73.9207 32.78 73.9207 33.62C73.9207 34.54 73.6907 35.35 73.2307 36.05C72.7707 36.75 72.1207 37.29 71.2807 37.67C70.4407 38.05 69.4507 38.24 68.3107 38.24ZM77.5125 38V17.09H80.0625V26.36L79.4325 26.6C79.7125 25.84 80.1025 25.19 80.6025 24.65C81.1025 24.11 81.6925 23.7 82.3725 23.42C83.0525 23.12 83.7925 22.97 84.5925 22.97C86.2125 22.97 87.4825 23.45 88.4025 24.41C89.3225 25.35 89.7825 26.75 89.7825 28.61V38H87.2325V29.54C87.2325 28.04 86.9525 26.94 86.3925 26.24C85.8525 25.52 85.0225 25.16 83.9025 25.16C82.6825 25.16 81.7325 25.6 81.0525 26.48C80.3925 27.34 80.0625 28.72 80.0625 30.62V38H77.5125ZM93.8888 38V23.21H96.4088V38H93.8888ZM93.6488 20.54V17.09H96.6488V20.54H93.6488ZM110.766 38L105.846 30.38L102.936 33.5V30.23L109.746 23.21H113.016L107.706 28.67L113.796 38H110.766ZM100.686 38V17.09H103.236V38H100.686ZM121.543 38.24C120.543 38.24 119.643 38.09 118.843 37.79C118.043 37.49 117.353 37.09 116.773 36.59C116.213 36.09 115.763 35.56 115.423 35L117.193 33.5C117.573 34.26 118.133 34.89 118.873 35.39C119.633 35.87 120.533 36.11 121.573 36.11C122.513 36.11 123.263 35.91 123.823 35.51C124.383 35.11 124.663 34.57 124.663 33.89C124.663 33.33 124.493 32.89 124.153 32.57C123.813 32.25 123.363 31.99 122.803 31.79C122.243 31.59 121.633 31.41 120.973 31.25C120.413 31.11 119.843 30.94 119.263 30.74C118.703 30.54 118.193 30.29 117.733 29.99C117.273 29.69 116.903 29.3 116.623 28.82C116.343 28.34 116.203 27.75 116.203 27.05C116.203 25.83 116.673 24.85 117.613 24.11C118.573 23.35 119.823 22.97 121.363 22.97C122.483 22.97 123.503 23.21 124.423 23.69C125.363 24.15 126.093 24.85 126.613 25.79L124.993 26.99C124.593 26.29 124.063 25.79 123.403 25.49C122.763 25.17 122.053 25.01 121.273 25.01C120.493 25.01 119.843 25.17 119.323 25.49C118.803 25.81 118.543 26.25 118.543 26.81C118.543 27.23 118.663 27.57 118.903 27.83C119.143 28.09 119.493 28.31 119.953 28.49C120.433 28.67 121.013 28.84 121.693 29C122.313 29.14 122.943 29.31 123.583 29.51C124.223 29.71 124.813 29.97 125.353 30.29C125.893 30.61 126.323 31.04 126.643 31.58C126.983 32.1 127.153 32.78 127.153 33.62C127.153 34.54 126.923 35.35 126.463 36.05C126.003 36.75 125.353 37.29 124.513 37.67C123.673 38.05 122.683 38.24 121.543 38.24ZM130.745 38V17.09H133.295V26.36L132.665 26.6C132.945 25.84 133.335 25.19 133.835 24.65C134.335 24.11 134.925 23.7 135.605 23.42C136.285 23.12 137.025 22.97 137.825 22.97C139.445 22.97 140.715 23.45 141.635 24.41C142.555 25.35 143.015 26.75 143.015 28.61V38H140.465V29.54C140.465 28.04 140.185 26.94 139.625 26.24C139.085 25.52 138.255 25.16 137.135 25.16C135.915 25.16 134.965 25.6 134.285 26.48C133.625 27.34 133.295 28.72 133.295 30.62V38H130.745ZM156.871 38L156.691 35.03V28.73C156.691 27.59 156.371 26.71 155.731 26.09C155.111 25.47 154.181 25.16 152.941 25.16C152.141 25.16 151.391 25.33 150.691 25.67C149.991 25.99 149.311 26.54 148.651 27.32L146.821 25.76C147.641 24.8 148.581 24.1 149.641 23.66C150.701 23.2 151.861 22.97 153.121 22.97C155.061 22.97 156.561 23.47 157.621 24.47C158.681 25.47 159.211 26.89 159.211 28.73V38H156.871ZM151.981 38.24C150.861 38.24 149.881 38.05 149.041 37.67C148.221 37.27 147.581 36.72 147.121 36.02C146.681 35.32 146.461 34.51 146.461 33.59C146.461 32.77 146.621 32.08 146.941 31.52C147.281 30.94 147.711 30.49 148.231 30.17C148.751 29.83 149.341 29.6 150.001 29.48C150.681 29.34 151.391 29.27 152.131 29.27H156.931V31.19H152.491C152.051 31.19 151.591 31.23 151.111 31.31C150.631 31.39 150.211 31.56 149.851 31.82C149.591 32.02 149.381 32.27 149.221 32.57C149.081 32.87 149.011 33.22 149.011 33.62C149.011 34.4 149.301 35.02 149.881 35.48C150.461 35.94 151.241 36.17 152.221 36.17C153.041 36.17 153.781 35.98 154.441 35.6C155.121 35.22 155.661 34.7 156.061 34.04C156.481 33.36 156.691 32.6 156.691 31.76L157.741 32.84C157.621 33.9 157.301 34.84 156.781 35.66C156.261 36.48 155.591 37.12 154.771 37.58C153.971 38.02 153.041 38.24 151.981 38.24Z" fill="#ffcc02"/>
<path d="M163.322 38V17.09H168.422L174.272 32.72H173.642L179.522 17.09H184.592V38H181.112V21.14L181.412 21.2L175.652 36.17H172.262L166.472 21.2L166.802 21.14V38H163.322ZM188.84 38V17.09H192.32V34.91H201.35V38H188.84Z" fill="#4D3AAB"/>
</svg>
