<svg width="278" height="192" viewBox="0 0 278 192" fill="none" xmlns="http://www.w3.org/2000/svg">
<path d="M150.76 70.9676C150.303 72.713 149.744 74.4242 149.087 76.0893C143.488 93.0496 124.336 103.327 109.704 97.3693C107.628 96.5417 105.704 95.3052 104.016 93.7162C96.2227 86.737 95.6021 75.0859 102.455 66.5379C107.665 60.1471 114.305 57.0745 121.636 55.9335C127.636 55.1079 133.692 55.7757 139.38 57.8904C140.641 58.3356 141.709 58.7633 143.448 59.2525C143.295 57.4117 142.645 55.6829 141.588 54.3014C138.362 49.0941 134.024 44.9184 128.967 42.1543C116.465 34.668 102.182 31.6924 87.9767 33.6148C75.0531 35.3055 62.0535 35.7676 49.1137 34.9962C39.2781 34.4739 29.8132 30.9288 21.7222 24.7365C16.1892 20.4377 10.8445 15.6616 5.48475 11.0489C4.55525 10.301 3.81796 9.28674 3.34499 8.10526C2.98475 7.31893 2.90315 6.39934 3.11661 5.5318C3.33006 4.66426 3.82273 3.91326 4.49529 3.43019C5.12448 3.05665 5.83796 2.92126 6.52979 3.0441C7.22162 3.16694 7.85487 3.54146 8.3355 4.11205C14.4804 9.62095 20.5627 15.2889 27.2453 20.1878C34.4086 25.6252 42.7458 27.7086 51.376 28.1703C62.6501 28.7929 73.9724 28.3423 85.2252 26.8235C101.178 24.6598 116.282 27.034 130.591 34.94C136.265 37.9893 141.28 42.3812 145.311 47.8292C148.056 51.4223 149.899 55.7997 150.655 60.5178C150.732 61.3867 151.004 62.2133 151.446 62.9179C151.888 63.6225 152.485 64.1813 153.178 64.5406C163.745 71.3142 172.808 80.7023 179.716 92.0309C188.403 105.809 196.06 120.405 202.609 135.671C210.469 154.031 222.912 166.546 238.723 175.414C248.353 180.748 258.58 182.181 269.196 182.001C270.352 181.887 271.514 181.938 272.651 182.152C273.298 182.225 273.894 182.568 274.324 183.114C274.754 183.66 274.989 184.372 274.982 185.113C275.058 185.862 274.891 186.622 274.514 187.254C274.138 187.886 273.576 188.347 272.934 188.552C272.179 188.876 271.379 189.027 270.58 188.996C262.539 188.423 254.249 188.982 246.575 185.97C225.74 178.29 209.231 164.412 198.785 142.19C192.498 128.755 186.195 115.484 178.83 102.775C173.829 94.2386 168.497 86.1665 161.581 79.5979C158.212 76.9262 154.695 74.2958 150.76 70.9676ZM144.361 68.2378C136.609 62.9113 125.572 61.8992 119.343 63.6358C115.042 64.6469 111.035 66.9566 107.745 70.3201C105.803 72.1749 104.491 74.7445 104.048 77.5638C103.178 83.9131 106.842 89.689 113.044 91.4117C124.173 94.5757 137.203 88.0224 142.614 76.265C143.882 73.8479 144.503 71.0766 144.403 68.2967L144.361 68.2378Z" fill="#C2F362" stroke="#F9FAFB" stroke-width="5"/>
</svg>
