<svg width="433" height="225" viewBox="0 0 433 225" fill="none" xmlns="http://www.w3.org/2000/svg">
<path d="M80.2484 211.002C84.7352 209.01 88.9643 207.095 93.1933 205.179C94.3321 204.679 95.4055 204.044 96.3903 203.289C98.5789 201.629 98.5284 199.928 96.2836 198.297C93.8457 196.593 91.2349 195.029 88.6612 193.379C85.4129 191.21 82.1025 188.903 78.9277 186.543C78.0903 185.852 77.4649 184.943 77.1217 183.919C75.2733 178.493 73.5774 172.975 71.8183 167.624C70.3982 163.308 69.5865 163.084 65.9622 165.702C45.0761 181.024 24.1742 196.275 3.14904 211.594C2.33473 212.084 1.58577 212.673 0.9197 213.347C-0.651754 214.814 -0.152424 216.604 1.98276 217.168C2.82132 217.352 3.67019 217.486 4.52489 217.571C28.621 220.055 52.7217 222.507 76.8268 224.927C80.2044 225.239 80.921 224.643 80.9024 221.266C80.6781 217.802 80.4491 214.456 80.2484 211.002ZM73.7584 186.713C72.3497 187.349 71.2533 187.783 70.3162 188.174C53.78 194.959 37.3353 201.792 20.7584 208.671C19.9149 208.888 19.128 209.281 18.4512 209.825C17.9449 210.422 17.66 211.172 17.6437 211.951C17.8086 212.304 18.0599 212.611 18.3746 212.844C18.6894 213.076 19.0578 213.227 19.4464 213.283C20.1631 213.467 21.1228 213.067 21.9515 212.992C38.7063 209.901 55.4193 206.885 72.2726 203.827C73.2673 203.693 74.218 203.531 75.5586 203.311C75.9907 209.11 76.3695 214.793 76.7676 220.67C53.6644 218.279 30.9408 216.05 8.17663 213.655C8.12238 213.521 8.10888 213.293 7.95968 213.118C27.8646 198.548 47.775 183.879 68.0235 169.121C70.0074 175.207 71.8829 180.83 73.7584 186.713ZM40.7518 205.369L40.527 204.828C52.1458 199.991 63.7126 195.253 75.3312 190.416C75.7054 190.209 76.1373 190.129 76.5618 190.187C76.9861 190.245 77.38 190.438 77.6835 190.738C78.1951 191.176 78.749 191.564 79.3371 191.895C82.4395 194.141 85.5737 196.336 89.169 198.764C87.5842 198.768 86.5589 198.778 85.5711 198.702C81.053 198.423 76.5173 198.72 72.0755 199.585C62.667 201.435 53.2406 203.046 43.8684 204.79C42.8509 205.056 41.8131 205.239 40.7654 205.338L40.7518 205.369ZM86.8998 202.969C86.9132 203.198 87.0218 203.466 87.0352 203.695C84.7473 204.523 82.4263 205.449 79.8671 206.385C79.8391 205.13 79.7307 204.082 79.7026 202.826C82.3262 202.78 84.5667 202.841 86.9133 202.938L86.8998 202.969Z" fill="#C2F362"/>
<path d="M406.223 80.4339C407.322 79.8482 408.286 79.3499 409.27 78.7753C419.741 72.6933 426.409 63.625 430.258 52.2866C433.152 43.749 433.548 35.1001 431 26.4389C429.459 21.0852 426.873 16.3028 423.707 11.8229C421.435 8.61583 418.922 5.63449 415.818 3.22687C414.622 2.3149 413.369 1.47926 412.067 0.72489C411.471 0.390925 410.82 0.162481 410.145 0.0496254C409.762 -0.0344826 409.363 -0.0113426 408.992 0.116495C408.62 0.244333 408.291 0.47191 408.04 0.77411C407.677 1.20587 407.487 1.70976 407.887 2.21858C407.948 2.3265 408.033 2.41936 408.135 2.49047C408.237 2.56158 408.353 2.60917 408.476 2.62981C408.599 2.65045 408.725 2.64362 408.845 2.60982C408.965 2.57602 409.076 2.51609 409.17 2.43435C409.942 1.93406 410.61 2.26802 411.23 2.63356C413.499 3.88913 415.547 5.50391 417.295 7.4152C422.542 13.0446 426.599 19.3822 428.868 26.7523C431.453 35.1991 430.955 43.6594 428.109 51.9755C425.449 59.7839 421.218 66.5629 415.006 72.0688C412.34 74.4718 409.343 76.4801 406.107 78.0316C405.918 78.1118 405.722 78.175 405.522 78.2204C404.844 76.6747 404.236 75.147 403.555 73.5976C400.428 66.5936 395.772 60.7767 389.921 55.8566C385.235 51.9123 380.112 48.5743 374.262 46.476C371.852 45.5206 369.307 44.9441 366.717 44.7673C365.353 44.6841 363.984 44.7351 362.629 44.9195C359.739 45.3853 357.75 47.1252 356.636 49.7701C355.848 51.6439 355.556 53.6861 355.785 55.701C356.094 59.0696 357.157 62.3229 358.896 65.2206C364.102 74.3389 372.075 79.7994 382.124 82.5732C389.111 84.5574 396.566 84.2002 403.35 81.5563C403.642 81.4494 403.94 81.3618 404.244 81.2941C404.457 81.8759 404.629 82.4723 404.757 83.0787C406.272 89.5245 406.474 96.2138 405.35 102.75C404.696 106.959 403.572 111.083 402 115.046C397.088 127.28 390.468 138.457 381.01 147.847C375.017 153.716 368.362 158.869 361.179 163.203C348.245 171.147 334.113 175.463 319.302 178.128C299.458 181.775 279.458 183.088 259.299 182.773C243.569 182.534 227.858 181.637 212.173 180.279C185.928 178.018 159.673 175.679 133.409 173.262C132.669 173.212 131.96 173.111 131.234 173.084C131.072 173.066 130.908 173.084 130.754 173.137C130.6 173.19 130.459 173.276 130.341 173.389C130.224 173.502 130.132 173.64 130.074 173.792C130.015 173.944 129.991 174.107 130.003 174.269C129.997 174.85 130.498 175.229 131.194 175.286C154.336 177.322 177.47 179.38 200.598 181.46C218.345 183.021 236.136 184.353 254.006 184.814C271.726 185.234 289.384 184.672 306.93 182.255C317.74 180.756 328.402 178.839 338.847 175.585C350.383 171.956 361.237 166.428 370.961 159.231C379.068 153.268 386.32 146.389 392.088 138.116C397.856 129.842 402.537 121.099 405.542 111.436C408.366 102.192 409.165 92.8106 407.079 83.3362C406.763 82.4556 406.507 81.4622 406.223 80.4339ZM403.652 79.1522C402.887 79.4576 402.413 79.7019 401.865 79.8664C395.25 82.2713 388.028 82.3978 381.352 80.2258C372.954 77.6036 366.051 72.9157 361.336 65.3423C359.475 62.4733 358.294 59.2163 357.883 55.8179C357.674 54.1115 357.874 52.3785 358.464 50.7602C359.302 48.6813 360.832 47.366 363.008 47.0457C364.318 46.8675 365.644 46.8465 366.957 46.9833C369.895 47.2569 372.759 48.0444 375.419 49.31C386.415 54.3554 395.064 61.9402 400.725 72.7438C401.881 74.7313 402.656 76.9184 403.652 79.1522Z" fill="#C2F362"/>
</svg>
