<svg width="499" height="206" viewBox="0 0 499 206" fill="none" xmlns="http://www.w3.org/2000/svg">
<path d="M418.752 192.002C414.265 190.01 410.036 188.095 405.807 186.179C404.668 185.679 403.594 185.044 402.61 184.289C400.421 182.629 400.472 180.928 402.716 179.297C405.154 177.593 407.765 176.029 410.339 174.379C413.587 172.21 416.898 169.903 420.072 167.543C420.91 166.852 421.535 165.943 421.878 164.919C423.727 159.493 425.423 153.975 427.182 148.624C428.602 144.308 429.413 144.084 433.038 146.702C453.924 162.024 474.826 177.275 495.851 192.594C496.665 193.084 497.414 193.673 498.08 194.347C499.652 195.814 499.152 197.604 497.017 198.168C496.179 198.352 495.33 198.486 494.475 198.571C470.379 201.055 446.278 203.507 422.173 205.927C418.796 206.239 418.079 205.643 418.098 202.266C418.322 198.802 418.551 195.456 418.752 192.002ZM425.242 167.713C426.65 168.349 427.747 168.783 428.684 169.174C445.22 175.959 461.665 182.792 478.242 189.671C479.085 189.888 479.872 190.281 480.549 190.825C481.055 191.422 481.34 192.172 481.356 192.951C481.191 193.304 480.94 193.611 480.625 193.844C480.311 194.076 479.942 194.227 479.554 194.283C478.837 194.467 477.877 194.067 477.048 193.992C460.294 190.901 443.581 187.885 426.727 184.827C425.733 184.693 424.782 184.531 423.441 184.311C423.009 190.11 422.63 195.793 422.232 201.67C445.336 199.279 468.059 197.05 490.823 194.655C490.878 194.521 490.891 194.293 491.04 194.118C471.135 179.548 451.225 164.879 430.977 150.121C428.993 156.207 427.117 161.83 425.242 167.713ZM458.248 186.369L458.473 185.828C446.854 180.991 435.287 176.253 423.669 171.416C423.295 171.209 422.863 171.129 422.438 171.187C422.014 171.245 421.62 171.438 421.316 171.738C420.805 172.176 420.251 172.564 419.663 172.895C416.56 175.141 413.426 177.336 409.831 179.764C411.416 179.768 412.441 179.778 413.429 179.702C417.947 179.423 422.483 179.72 426.925 180.585C436.333 182.435 445.759 184.046 455.132 185.79C456.149 186.056 457.187 186.239 458.235 186.338L458.248 186.369ZM412.1 183.969C412.087 184.198 411.978 184.466 411.965 184.695C414.253 185.523 416.574 186.449 419.133 187.385C419.161 186.13 419.269 185.082 419.297 183.826C416.674 183.78 414.433 183.841 412.087 183.938L412.1 183.969Z" fill="#C2F362"/>
<path d="M26.469 80.4339C25.37 79.8482 24.406 79.3499 23.422 78.7753C12.951 72.6933 6.28296 63.625 2.43396 52.2866C-0.460052 43.749 -0.856049 35.1001 1.69196 26.4389C3.23294 21.0852 5.81897 16.3028 8.98495 11.8229C11.257 8.61583 13.77 5.63449 16.874 3.22687C18.07 2.3149 19.323 1.47926 20.625 0.72489C21.221 0.390925 21.872 0.162481 22.547 0.0496254C22.93 -0.0344826 23.3289 -0.0113426 23.7 0.116495C24.072 0.244333 24.4009 0.47191 24.6519 0.77411C25.015 1.20587 25.205 1.70976 24.805 2.21858C24.744 2.3265 24.6589 2.41936 24.5569 2.49047C24.455 2.56158 24.3389 2.60917 24.2159 2.62981C24.093 2.65045 23.9669 2.64362 23.847 2.60982C23.727 2.57602 23.6159 2.51609 23.5219 2.43435C22.7499 1.93406 22.0819 2.26802 21.4619 2.63356C19.1929 3.88913 17.1449 5.50391 15.3969 7.4152C10.1499 13.0446 6.09296 19.3822 3.82394 26.7523C1.23895 35.1991 1.73694 43.6594 4.58295 51.9755C7.24295 59.7839 11.4739 66.5629 17.6859 72.0688C20.3519 74.4718 23.349 76.4801 26.585 78.0316C26.774 78.1118 26.9699 78.175 27.17 78.2204C27.848 76.6747 28.456 75.147 29.137 73.5976C32.264 66.5936 36.92 60.7767 42.771 55.8566C47.457 51.9123 52.58 48.5743 58.43 46.476C60.84 45.5206 63.385 44.9441 65.975 44.7673C67.339 44.6841 68.708 44.7351 70.063 44.9195C72.953 45.3853 74.942 47.1252 76.056 49.7701C76.844 51.6439 77.136 53.6861 76.907 55.701C76.598 59.0696 75.535 62.3229 73.796 65.2206C68.59 74.3389 60.617 79.7994 50.568 82.5732C43.581 84.5574 36.1259 84.2002 29.3419 81.5563C29.05 81.4494 28.752 81.3618 28.448 81.2941C28.235 81.8759 28.063 82.4723 27.935 83.0787C26.42 89.5245 26.218 96.2138 27.3419 102.75C27.9959 106.959 29.12 111.083 30.692 115.046C35.6039 127.28 42.224 138.457 51.682 147.847C57.675 153.716 64.33 158.869 71.513 163.203C84.447 171.147 98.579 175.463 113.39 178.128C133.234 181.775 153.234 183.088 173.393 182.773C189.123 182.534 204.834 181.637 220.519 180.279C246.764 178.018 273.019 175.679 299.284 173.262C300.023 173.212 300.733 173.111 301.458 173.084C301.62 173.066 301.784 173.084 301.938 173.137C302.093 173.19 302.233 173.276 302.351 173.389C302.469 173.502 302.56 173.64 302.618 173.792C302.677 173.944 302.701 174.107 302.689 174.269C302.696 174.85 302.194 175.229 301.498 175.286C278.357 177.322 255.222 179.38 232.095 181.46C214.347 183.021 196.556 184.353 178.686 184.814C160.966 185.234 143.308 184.672 125.762 182.255C114.952 180.756 104.29 178.839 93.845 175.585C82.309 171.956 71.455 166.428 61.731 159.231C53.624 153.268 46.3719 146.389 40.6039 138.116C34.8359 129.842 30.155 121.099 27.15 111.436C24.326 102.192 23.5269 92.8106 25.6129 83.3362C25.929 82.4556 26.185 81.4622 26.469 80.4339ZM29.0399 79.1522C29.805 79.4576 30.279 79.7019 30.827 79.8664C37.442 82.2713 44.664 82.3978 51.34 80.2258C59.738 77.6036 66.641 72.9157 71.356 65.3423C73.217 62.4733 74.398 59.2163 74.809 55.8179C75.018 54.1115 74.818 52.3785 74.228 50.7602C73.39 48.6813 71.86 47.366 69.684 47.0457C68.374 46.8675 67.048 46.8465 65.735 46.9833C62.797 47.2569 59.933 48.0444 57.273 49.31C46.277 54.3554 37.628 61.9402 31.9669 72.7438C30.8109 74.7313 30.0359 76.9184 29.0399 79.1522Z" fill="#C2F362"/>
</svg>
